<?xml version="1.0" encoding="UTF-8"?>
<svg width="700pt" height="700pt" version="1.1" viewBox="0 0 700 700" xmlns="http://www.w3.org/2000/svg" xmlns:xlink="http://www.w3.org/1999/xlink">
 <defs>
  <symbol id="t" overflow="visible">
   <path d="m3.6562-0.21875c-0.1875 0.09375-0.38672 0.16797-0.59375 0.21875-0.19922 0.050781-0.40625 0.078125-0.625 0.078125-0.66797 0-1.1992-0.17969-1.5938-0.54688-0.38672-0.375-0.57812-0.87891-0.57812-1.5156 0-0.64453 0.19141-1.1484 0.57812-1.5156 0.39453-0.375 0.92578-0.5625 1.5938-0.5625 0.21875 0 0.42578 0.027344 0.625 0.078125 0.20703 0.054687 0.40625 0.125 0.59375 0.21875v0.82812c-0.1875-0.125-0.375-0.21875-0.5625-0.28125-0.17969-0.0625-0.37109-0.09375-0.57812-0.09375-0.36719 0-0.65625 0.12109-0.875 0.35938-0.21094 0.23047-0.3125 0.55469-0.3125 0.96875 0 0.40625 0.10156 0.73047 0.3125 0.96875 0.21875 0.23047 0.50781 0.34375 0.875 0.34375 0.20703 0 0.39844-0.023437 0.57812-0.078125 0.1875-0.0625 0.375-0.16016 0.5625-0.29688z"/>
  </symbol>
  <symbol id="c" overflow="visible">
   <path d="m2.6875-2.1719c-0.085938-0.039063-0.16797-0.070313-0.25-0.09375-0.085938-0.019531-0.16797-0.03125-0.25-0.03125-0.25 0-0.44531 0.085937-0.57812 0.25-0.125 0.15625-0.1875 0.38281-0.1875 0.67188v1.375h-0.96875v-2.9844h0.96875v0.48438c0.11328-0.19531 0.25-0.33594 0.40625-0.42188 0.16406-0.09375 0.35938-0.14062 0.57812-0.14062h0.10938c0.039063 0 0.09375 0.007812 0.15625 0.015625z"/>
  </symbol>
  <symbol id="b" overflow="visible">
   <path d="m3.4375-1.5v0.26562h-2.2344c0.03125 0.23047 0.11328 0.40234 0.25 0.51562 0.13281 0.10547 0.32812 0.15625 0.57812 0.15625 0.20703 0 0.41406-0.023438 0.625-0.078125 0.20703-0.0625 0.42188-0.15625 0.64062-0.28125v0.73438c-0.21875 0.09375-0.44531 0.16406-0.67188 0.20312-0.23047 0.039062-0.45312 0.0625-0.67188 0.0625-0.54297 0-0.96484-0.13281-1.2656-0.40625-0.30469-0.28125-0.45312-0.67188-0.45312-1.1719 0-0.47656 0.14453-0.85938 0.4375-1.1406 0.30078-0.28125 0.70703-0.42188 1.2188-0.42188 0.46875 0 0.84375 0.14062 1.125 0.42188s0.42188 0.66406 0.42188 1.1406zm-0.96875-0.32812c0-0.17578-0.058594-0.31641-0.17188-0.42188-0.10547-0.11328-0.24219-0.17188-0.40625-0.17188-0.1875 0-0.33984 0.054687-0.45312 0.15625-0.11719 0.10547-0.1875 0.25-0.21875 0.4375z"/>
  </symbol>
  <symbol id="d" overflow="visible">
   <path d="m1.7969-1.3438c-0.19922 0-0.35156 0.039062-0.45312 0.10938-0.09375 0.0625-0.14062 0.16406-0.14062 0.29688 0 0.11719 0.035156 0.21094 0.10938 0.28125 0.082031 0.0625 0.19531 0.09375 0.34375 0.09375 0.17578 0 0.32812-0.0625 0.45312-0.1875s0.1875-0.28516 0.1875-0.48438v-0.10938zm1.4688-0.35938v1.7031h-0.96875v-0.4375c-0.125 0.17969-0.27344 0.30859-0.4375 0.39062-0.15625 0.082031-0.35156 0.125-0.57812 0.125-0.3125 0-0.57031-0.085938-0.76562-0.26562-0.1875-0.1875-0.28125-0.42188-0.28125-0.70312 0-0.35156 0.11719-0.61328 0.35938-0.78125 0.23828-0.16406 0.61719-0.25 1.1406-0.25h0.5625v-0.0625c0-0.15625-0.0625-0.26562-0.1875-0.32812-0.11719-0.070312-0.29688-0.10938-0.54688-0.10938-0.21094 0-0.40234 0.023437-0.57812 0.0625-0.17969 0.042969-0.33984 0.10156-0.48438 0.17188v-0.71875c0.19531-0.050781 0.39844-0.085938 0.60938-0.10938 0.20703-0.03125 0.41406-0.046875 0.625-0.046875 0.53906 0 0.92969 0.10938 1.1719 0.32812 0.23828 0.21094 0.35938 0.55469 0.35938 1.0312z"/>
  </symbol>
  <symbol id="a" overflow="visible">
   <path d="m1.5-3.8438v0.85938h0.98438v0.67188h-0.98438v1.2812c0 0.13672 0.023438 0.23047 0.078125 0.28125 0.0625 0.042969 0.17578 0.0625 0.34375 0.0625h0.48438v0.6875h-0.8125c-0.38672 0-0.65625-0.078125-0.8125-0.23438s-0.23438-0.42188-0.23438-0.79688v-1.2812h-0.46875v-0.67188h0.46875v-0.85938z"/>
  </symbol>
  <symbol id="i" overflow="visible">
   <path d="m2.5-2.5469v-1.6094h0.95312v4.1562h-0.95312v-0.4375c-0.13672 0.17969-0.28125 0.30859-0.4375 0.39062-0.15625 0.082031-0.33984 0.125-0.54688 0.125-0.375 0-0.68359-0.14453-0.92188-0.4375-0.23047-0.28906-0.34375-0.67188-0.34375-1.1406 0-0.45703 0.11328-0.83203 0.34375-1.125 0.23828-0.28906 0.54688-0.4375 0.92188-0.4375 0.19531 0 0.375 0.042969 0.53125 0.125 0.16406 0.085938 0.31641 0.21484 0.45312 0.39062zm-0.64062 1.9375c0.20703 0 0.36328-0.070313 0.46875-0.21875 0.11328-0.15625 0.17188-0.37891 0.17188-0.67188 0-0.28125-0.058594-0.49219-0.17188-0.64062-0.10547-0.15625-0.26172-0.23438-0.46875-0.23438-0.19922 0-0.35547 0.078125-0.46875 0.23438-0.10547 0.14844-0.15625 0.35938-0.15625 0.64062 0 0.29297 0.050781 0.51562 0.15625 0.67188 0.11328 0.14844 0.26953 0.21875 0.46875 0.21875z"/>
  </symbol>
  <symbol id="h" overflow="visible">
   <path d="m2.0469-0.60938c0.20703 0 0.36328-0.070313 0.46875-0.21875 0.11328-0.15625 0.17188-0.37891 0.17188-0.67188 0-0.28125-0.058594-0.49219-0.17188-0.64062-0.10547-0.15625-0.26172-0.23438-0.46875-0.23438-0.19922 0-0.35547 0.078125-0.46875 0.23438-0.10547 0.14844-0.15625 0.35938-0.15625 0.64062 0 0.29297 0.050781 0.51562 0.15625 0.67188 0.11328 0.14844 0.26953 0.21875 0.46875 0.21875zm-0.625-1.9375c0.125-0.17578 0.26562-0.30469 0.42188-0.39062 0.16406-0.082031 0.35156-0.125 0.5625-0.125 0.36328 0 0.66406 0.14844 0.90625 0.4375 0.23828 0.29297 0.35938 0.66797 0.35938 1.125 0 0.46875-0.12109 0.85156-0.35938 1.1406-0.24219 0.29297-0.54297 0.4375-0.90625 0.4375-0.21094 0-0.39844-0.042969-0.5625-0.125-0.15625-0.082031-0.29688-0.21094-0.42188-0.39062v0.4375h-0.96875v-4.1562h0.96875z"/>
  </symbol>
  <symbol id="g" overflow="visible">
   <path d="m0.0625-2.9844h0.95312l0.8125 2.0156 0.6875-2.0156h0.95312l-1.2656 3.2656c-0.125 0.33203-0.27344 0.56641-0.4375 0.70312-0.16797 0.13281-0.39062 0.20312-0.67188 0.20312h-0.54688v-0.64062h0.29688c0.16406 0 0.28516-0.027344 0.35938-0.078125 0.070313-0.054688 0.12891-0.14062 0.17188-0.26562l0.03125-0.09375z"/>
  </symbol>
  <symbol id="f" overflow="visible">
   <path d="m0.5-3.9844h2.7812v0.78125h-1.75v0.73438h1.6406v0.78125h-1.6406v1.6875h-1.0312z"/>
  </symbol>
  <symbol id="s" overflow="visible">
   <path d="m0.45312-4.1562h0.96875v4.1562h-0.96875z"/>
  </symbol>
  <symbol id="r" overflow="visible">
   <path d="m2.4219-4.1562v0.625h-0.51562c-0.13672 0-0.23438 0.027344-0.29688 0.078125-0.054687 0.054687-0.078125 0.13672-0.078125 0.25v0.21875h0.82812v0.67188h-0.82812v2.3125h-0.95312v-2.3125h-0.46875v-0.67188h0.46875v-0.21875c0-0.32031 0.085937-0.5625 0.26562-0.71875 0.1875-0.15625 0.47266-0.23438 0.85938-0.23438z"/>
  </symbol>
  <symbol id="e" overflow="visible">
   <path d="m1.875-2.375c-0.21094 0-0.37109 0.078125-0.48438 0.23438-0.10547 0.14844-0.15625 0.35938-0.15625 0.64062 0 0.29297 0.050781 0.51562 0.15625 0.67188 0.11328 0.14844 0.27344 0.21875 0.48438 0.21875 0.20703 0 0.36719-0.070313 0.48438-0.21875 0.11328-0.15625 0.17188-0.37891 0.17188-0.67188 0-0.28125-0.058594-0.49219-0.17188-0.64062-0.11719-0.15625-0.27734-0.23438-0.48438-0.23438zm0-0.6875c0.51953 0 0.92188 0.14062 1.2031 0.42188 0.28906 0.27344 0.4375 0.65234 0.4375 1.1406 0 0.5-0.14844 0.89062-0.4375 1.1719-0.28125 0.27344-0.68359 0.40625-1.2031 0.40625-0.51172 0-0.91406-0.13281-1.2031-0.40625-0.29297-0.28125-0.4375-0.67188-0.4375-1.1719 0-0.48828 0.14453-0.86719 0.4375-1.1406 0.28906-0.28125 0.69141-0.42188 1.2031-0.42188z"/>
  </symbol>
  <symbol id="q" overflow="visible">
   <path d="m3.2344-2.5c0.11328-0.17578 0.25391-0.3125 0.42188-0.40625 0.16406-0.10156 0.35156-0.15625 0.5625-0.15625 0.33203 0 0.58594 0.10938 0.76562 0.32812 0.1875 0.21094 0.28125 0.51172 0.28125 0.90625v1.8281h-0.96875v-1.5625c0.007813-0.019531 0.015625-0.039062 0.015625-0.0625v-0.10938c0-0.21875-0.03125-0.375-0.09375-0.46875s-0.16406-0.14062-0.29688-0.14062c-0.1875 0-0.33594 0.078125-0.4375 0.23438-0.09375 0.14844-0.14062 0.35938-0.14062 0.64062v1.4688h-0.96875v-1.5625c0-0.33203-0.03125-0.54688-0.09375-0.64062-0.054688-0.09375-0.15234-0.14062-0.29688-0.14062-0.17969 0-0.32031 0.078125-0.42188 0.23438-0.09375 0.14844-0.14062 0.35938-0.14062 0.64062v1.4688h-0.96875v-2.9844h0.96875v0.4375c0.11328-0.17578 0.24219-0.30469 0.39062-0.39062 0.15625-0.082031 0.32812-0.125 0.51562-0.125 0.20703 0 0.39062 0.054688 0.54688 0.15625 0.15625 0.09375 0.27344 0.23047 0.35938 0.40625z"/>
  </symbol>
  <symbol id="p" overflow="visible">
   <path d="m3.4688-1.8281v1.8281h-0.96875v-1.3906c0-0.25781-0.007812-0.4375-0.015625-0.53125-0.011719-0.10156-0.03125-0.17578-0.0625-0.21875-0.03125-0.0625-0.085937-0.10938-0.15625-0.14062-0.0625-0.039062-0.13281-0.0625-0.20312-0.0625-0.21094 0-0.37109 0.078125-0.48438 0.23438-0.10547 0.15625-0.15625 0.37109-0.15625 0.64062v1.4688h-0.96875v-4.1562h0.96875v1.6094c0.13281-0.17578 0.28516-0.30469 0.45312-0.39062 0.16406-0.082031 0.34375-0.125 0.53125-0.125 0.34375 0 0.60156 0.10938 0.78125 0.32812 0.1875 0.21094 0.28125 0.51172 0.28125 0.90625z"/>
  </symbol>
  <symbol id="o" overflow="visible">
   <path d="m0.5-3.9844h1.1562l1.4375 2.7344v-2.7344h0.98438v3.9844h-1.1562l-1.4375-2.7344v2.7344h-0.98438z"/>
  </symbol>
  <symbol id="n" overflow="visible">
   <path d="m0.42188-1.1719v-1.8125h0.96875v0.29688 0.60938 0.48438c0 0.24219 0.003906 0.41797 0.015625 0.53125 0.007812 0.10547 0.03125 0.17969 0.0625 0.21875 0.039062 0.0625 0.09375 0.11719 0.15625 0.15625 0.0625 0.03125 0.13281 0.046875 0.21875 0.046875 0.19531 0 0.35156-0.078125 0.46875-0.23438 0.11328-0.15625 0.17188-0.36719 0.17188-0.64062v-1.4688h0.95312v2.9844h-0.95312v-0.4375c-0.14844 0.17969-0.30469 0.30859-0.46875 0.39062-0.15625 0.082031-0.33594 0.125-0.53125 0.125-0.34375 0-0.60938-0.10156-0.79688-0.3125-0.17969-0.21875-0.26562-0.53125-0.26562-0.9375z"/>
  </symbol>
  <symbol id="m" overflow="visible">
   <path d="m3.4688-1.8281v1.8281h-0.96875v-1.3906c0-0.25781-0.007812-0.4375-0.015625-0.53125-0.011719-0.10156-0.03125-0.17578-0.0625-0.21875-0.03125-0.0625-0.085937-0.10938-0.15625-0.14062-0.0625-0.039062-0.13281-0.0625-0.20312-0.0625-0.21094 0-0.37109 0.078125-0.48438 0.23438-0.10547 0.15625-0.15625 0.37109-0.15625 0.64062v1.4688h-0.96875v-2.9844h0.96875v0.4375c0.13281-0.17578 0.28516-0.30469 0.45312-0.39062 0.16406-0.082031 0.34375-0.125 0.53125-0.125 0.34375 0 0.60156 0.10938 0.78125 0.32812 0.1875 0.21094 0.28125 0.51172 0.28125 0.90625z"/>
  </symbol>
  <symbol id="l" overflow="visible">
   <path d="m0.5-3.9844h1.7031c0.50781 0 0.89844 0.11719 1.1719 0.34375 0.26953 0.21875 0.40625 0.53906 0.40625 0.95312 0 0.41797-0.13672 0.74219-0.40625 0.96875-0.27344 0.21875-0.66406 0.32812-1.1719 0.32812h-0.67188v1.3906h-1.0312zm1.0312 0.75v1.1094h0.5625c0.19531 0 0.34766-0.046875 0.45312-0.14062 0.11328-0.10156 0.17188-0.24219 0.17188-0.42188 0-0.17578-0.058594-0.3125-0.17188-0.40625-0.10547-0.09375-0.25781-0.14062-0.45312-0.14062z"/>
  </symbol>
  <symbol id="k" overflow="visible">
   <path d="m0.45312-2.9844h0.96875v2.9375c0 0.39453-0.10156 0.69531-0.29688 0.90625-0.1875 0.21875-0.46484 0.32812-0.82812 0.32812h-0.48438v-0.64062h0.17188c0.17578 0 0.29688-0.042969 0.35938-0.125 0.070312-0.074219 0.10938-0.23047 0.10938-0.46875zm0-1.1719h0.96875v0.78125h-0.96875z"/>
  </symbol>
  <symbol id="j" overflow="visible">
   <path d="m2.875-2.8906v0.76562c-0.125-0.082031-0.25781-0.14453-0.39062-0.1875-0.13672-0.039062-0.27344-0.0625-0.40625-0.0625-0.27344 0-0.48047 0.078125-0.625 0.23438-0.14844 0.15625-0.21875 0.37109-0.21875 0.64062 0 0.28125 0.070313 0.5 0.21875 0.65625 0.14453 0.15625 0.35156 0.23438 0.625 0.23438 0.14453 0 0.28516-0.019531 0.42188-0.0625 0.13281-0.039063 0.25781-0.10938 0.375-0.20312v0.78125c-0.14844 0.0625-0.29688 0.10156-0.45312 0.125-0.15625 0.03125-0.3125 0.046875-0.46875 0.046875-0.54297 0-0.96484-0.13281-1.2656-0.40625-0.30469-0.28125-0.45312-0.67188-0.45312-1.1719 0-0.48828 0.14844-0.86719 0.45312-1.1406 0.30078-0.28125 0.72266-0.42188 1.2656-0.42188 0.15625 0 0.3125 0.015625 0.46875 0.046875 0.15625 0.023437 0.30469 0.0625 0.45312 0.125z"/>
  </symbol>
 </defs>
 <g>
  <path d="m345.61 350.98c-25.871 0-50.602-9.6484-69.637-27.176-19.035-17.523-30.691-41.375-32.824-67.156l-9.8672-119.21c-0.011718-0.12109-0.015625-0.24219-0.015625-0.35938 0-62.172 50.582-112.75 112.75-112.75 62.172 0 112.75 50.582 112.75 112.75 0 0.12891-0.003906 0.26172-0.015625 0.39062l-10.75 119.89c-2.3008 25.637-14.027 49.324-33.023 66.695-18.996 17.367-43.637 26.934-69.375 26.934zm-103.59-214.09 9.8516 119.04c4.0039 48.395 45.184 86.305 93.742 86.305 49.031 0 89.309-36.828 93.688-85.664l10.73-119.69c-0.10156-57.262-46.719-103.81-104-103.81-57.293 0-103.91 46.559-104.01 103.83z"/>
  <path d="m345.3 220.93c-44.246 0-80.242-35.996-80.242-80.242s35.996-80.242 80.242-80.242c44.246 0 80.242 35.996 80.242 80.242s-35.996 80.242-80.242 80.242zm0-151.73c-39.422 0-71.492 32.07-71.492 71.492 0 39.418 32.07 71.492 71.492 71.492 39.418 0 71.492-32.07 71.492-71.492 0-39.418-32.07-71.492-71.492-71.492z"/>
  <path d="m370.59 98.098c-0.46094 0-0.92578-0.070312-1.3828-0.22656-2.293-0.76562-3.5312-3.2422-2.7656-5.5352l7.2227-21.676c0.76562-2.293 3.2461-3.5273 5.5352-2.7656 2.293 0.76562 3.5312 3.2422 2.7656 5.5352l-7.2227 21.676c-0.61328 1.832-2.3242 2.9922-4.1523 2.9922z"/>
  <path d="m385.04 141.45h-7.2266c-2.418 0-4.375-1.957-4.375-4.375s1.957-4.375 4.375-4.375h7.2266c2.418 0 4.375 1.957 4.375 4.375s-1.9609 4.375-4.375 4.375z"/>
  <path d="m312.79 141.45h-7.2266c-2.418 0-4.375-1.957-4.375-4.375s1.957-4.375 4.375-4.375h7.2266c2.418 0 4.375 1.957 4.375 4.375s-1.9609 4.375-4.375 4.375z"/>
  <path d="m406.71 329.31c-0.85156 0-1.7109-0.25-2.4688-0.76562-69.559-47.672-103.66-95.906-120.01-127.97-17.898-35.094-19.125-58.699-19.168-59.688-0.10547-2.4141 1.7656-4.457 4.1797-4.5625 2.4102-0.097656 4.4531 1.7617 4.5625 4.1719 0.015625 0.29687 1.3125 23.172 18.508 56.664 15.926 31.02 49.133 77.746 116.88 124.17 1.9922 1.3672 2.5 4.0898 1.1367 6.082-0.84766 1.2344-2.2188 1.8984-3.6133 1.8984z"/>
  <path d="m348.92 278.73c-1.5273 0-3.0117-0.80078-3.8164-2.2266-1.1875-2.1055-0.44141-4.7734 1.6602-5.9609 34.656-19.547 51.832-53.68 60.145-78.875 9.1055-27.613 9.8789-50.875 9.8867-51.109 0.070312-2.4141 2.0312-4.293 4.4961-4.2461 2.4141 0.070312 4.3164 2.082 4.25 4.4961-0.027343 0.98828-0.78906 24.57-10.242 53.355-12.598 38.359-34.809 67.406-64.234 84.004-0.67578 0.38281-1.4141 0.5625-2.1445 0.5625z"/>
  <path d="m320.88 101.89c-0.35156 0-0.70703-0.042969-1.0625-0.13281-2.3438-0.58594-3.7695-2.9609-3.1836-5.3047l6.3672-25.461c0.58594-2.3438 2.9648-3.7695 5.3047-3.1836 2.3438 0.58594 3.7695 2.9609 3.1836 5.3047l-6.3672 25.461c-0.49609 1.9883-2.2812 3.3164-4.2422 3.3164z"/>
  <path d="m345.3 184.8c-12.371 0-22.438-10.066-22.438-22.438 0-2.418 1.957-4.375 4.375-4.375s4.375 1.957 4.375 4.375c0 7.5469 6.1406 13.688 13.688 13.688s13.688-6.1406 13.688-13.688c0-2.418 1.957-4.375 4.375-4.375s4.375 1.957 4.375 4.375c0.003907 12.375-10.062 22.438-22.438 22.438z"/>
  <path d="m427.12 535.68c-1.8828 0-3.6211-1.2266-4.1875-3.1172l-27.852-92.609c-0.37891-1.2656-0.16797-2.6328 0.57422-3.7227l92.262-135.39c7.4922-10.992 21.77-15.238 34.035-10.152l-28.098-100.45c-4.4883-16.043 4.9141-32.746 20.957-37.23 7.7695-2.1758 15.926-1.1914 22.957 2.7656 7.0312 3.957 12.102 10.418 14.277 18.188l29.496 105.45c10.609 37.938 4.332 78.605-17.234 111.57l-33.27 50.867c-11.836 18.098-14.695 40.242-7.8398 60.754l0.48828 1.457c0.37891 1.1367 0.27734 2.3789-0.28516 3.4375s-1.5312 1.8398-2.6875 2.1641l-92.41 25.848c-0.39453 0.11328-0.79297 0.16406-1.1836 0.16406zm-23.059-96.242 26.016 86.5 83.906-23.469c-6.5039-22.23-3.0195-45.898 9.7305-65.395l33.27-50.871c20.184-30.855 26.062-68.918 16.129-104.43l-29.496-105.45c-1.543-5.5195-5.1445-10.109-10.141-12.922s-10.789-3.5117-16.309-1.9648c-5.5195 1.543-10.109 5.1445-12.922 10.141-2.8125 4.9961-3.5117 10.785-1.9648 16.309l31.242 111.69c1.9648 2.5664 3.4922 5.4766 4.4883 8.6328 2.4844 7.8477 1.4141 16.355-2.9297 23.348l-48.781 78.488c-1.2734 2.0508-3.9727 2.6836-6.0273 1.4062-2.0508-1.2734-2.6836-3.9727-1.4062-6.0273l48.781-78.488c2.9961-4.8164 3.7305-10.684 2.0195-16.09-0.51562-1.6211-1.2305-3.1523-2.1211-4.5547-0.91797-0.55469-1.6367-1.4492-1.9531-2.5664v-0.003906c-1.8711-2.0781-4.1914-3.75-6.8281-4.8711-8.4922-3.6094-18.426-0.69531-23.621 6.9297z"/>
  <path d="m279.1 534.01c-0.35156 0-0.70703-0.042969-1.0625-0.13281l-93.102-23.25c-1.1602-0.28906-2.1484-1.0391-2.7383-2.0781-0.58984-1.0391-0.73437-2.2734-0.39453-3.418l0.48828-1.6328c6.1367-20.594 2.6211-42.527-9.6406-60.176l-34.812-50.098c-22.48-32.352-29.898-72.824-20.355-111.05l26.531-106.24c1.9531-7.8281 6.8398-14.426 13.762-18.582 6.918-4.1523 15.039-5.3633 22.871-3.4102 7.8281 1.9531 14.426 6.8398 18.582 13.762 4.1523 6.918 5.3633 15.039 3.4102 22.871l-25.273 101.19c12.121-5.4258 26.512-1.582 34.309 9.1953l96.02 132.75c0.77344 1.0703 1.0234 2.4258 0.67969 3.6992l-25.051 93.352c-0.52344 1.9531-2.2891 3.2422-4.2227 3.2422zm-87.652-30.773 84.539 21.113 23.395-87.188-94.801-131.06c-5.4062-7.4766-15.418-10.113-23.805-6.2656-2.6055 1.1953-4.8789 2.9336-6.6914 5.0625v0.003906c-0.28125 1.125-0.97266 2.0391-1.8789 2.6211-0.85156 1.4297-1.5273 2.9805-1.9961 4.6172-1.5586 5.4531-0.66016 11.293 2.4688 16.027l50.965 77.086c1.332 2.0156 0.77734 4.7305-1.2383 6.0625-2.0156 1.3359-4.7305 0.77734-6.0625-1.2383l-50.965-77.086c-4.5391-6.8672-5.8438-15.344-3.582-23.258 0.91016-3.1836 2.3555-6.1367 4.2461-8.7539l28.098-112.52c1.3906-5.5625 0.52734-11.332-2.4219-16.246-2.9492-4.9141-7.6367-8.3867-13.199-9.7734-5.5625-1.3906-11.332-0.53125-16.246 2.4219-4.9141 2.9492-8.3867 7.6367-9.7734 13.199l-26.523 106.23c-8.9336 35.773-1.9883 73.656 19.051 103.93l34.812 50.105c13.242 19.055 17.41 42.559 11.609 64.902z"/>
  <use x="70" y="576.40625" xlink:href="#t"/>
  <use x="74.011719" y="576.40625" xlink:href="#c"/>
  <use x="76.710938" y="576.40625" xlink:href="#b"/>
  <use x="80.417969" y="576.40625" xlink:href="#d"/>
  <use x="84.109375" y="576.40625" xlink:href="#a"/>
  <use x="86.722656" y="576.40625" xlink:href="#b"/>
  <use x="90.433594" y="576.40625" xlink:href="#i"/>
  <use x="96.25" y="576.40625" xlink:href="#h"/>
  <use x="100.167969" y="576.40625" xlink:href="#g"/>
  <use x="105.636719" y="576.40625" xlink:href="#f"/>
  <use x="109.371094" y="576.40625" xlink:href="#s"/>
  <use x="111.246094" y="576.40625" xlink:href="#d"/>
  <use x="114.9375" y="576.40625" xlink:href="#a"/>
  <use x="117.550781" y="576.40625" xlink:href="#d"/>
  <use x="121.238281" y="576.40625" xlink:href="#c"/>
  <use x="123.9375" y="576.40625" xlink:href="#a"/>
  <use x="70" y="581.875" xlink:href="#r"/>
  <use x="72.378906" y="581.875" xlink:href="#c"/>
  <use x="75.078125" y="581.875" xlink:href="#e"/>
  <use x="78.832031" y="581.875" xlink:href="#q"/>
  <use x="86.4375" y="581.875" xlink:href="#a"/>
  <use x="89.050781" y="581.875" xlink:href="#p"/>
  <use x="92.941406" y="581.875" xlink:href="#b"/>
  <use x="98.554688" y="581.875" xlink:href="#o"/>
  <use x="103.132812" y="581.875" xlink:href="#e"/>
  <use x="106.890625" y="581.875" xlink:href="#n"/>
  <use x="110.785156" y="581.875" xlink:href="#m"/>
  <use x="116.582031" y="581.875" xlink:href="#l"/>
  <use x="120.589844" y="581.875" xlink:href="#c"/>
  <use x="123.285156" y="581.875" xlink:href="#e"/>
  <use x="127.042969" y="581.875" xlink:href="#k"/>
  <use x="128.917969" y="581.875" xlink:href="#b"/>
  <use x="132.625" y="581.875" xlink:href="#j"/>
  <use x="135.867188" y="581.875" xlink:href="#a"/>
 </g>
</svg>
