<?xml version="1.0" encoding="UTF-8"?>
<svg width="700pt" height="700pt" version="1.1" viewBox="0 0 700 700" xmlns="http://www.w3.org/2000/svg" xmlns:xlink="http://www.w3.org/1999/xlink">
 <defs>
  <symbol id="s" overflow="visible">
   <path d="m3.6562-0.21875c-0.1875 0.09375-0.38672 0.16797-0.59375 0.21875-0.19922 0.050781-0.40625 0.078125-0.625 0.078125-0.66797 0-1.1992-0.17969-1.5938-0.54688-0.38672-0.375-0.57812-0.87891-0.57812-1.5156 0-0.64453 0.19141-1.1484 0.57812-1.5156 0.39453-0.375 0.92578-0.5625 1.5938-0.5625 0.21875 0 0.42578 0.027344 0.625 0.078125 0.20703 0.054687 0.40625 0.125 0.59375 0.21875v0.82812c-0.1875-0.125-0.375-0.21875-0.5625-0.28125-0.17969-0.0625-0.37109-0.09375-0.57812-0.09375-0.36719 0-0.65625 0.12109-0.875 0.35938-0.21094 0.23047-0.3125 0.55469-0.3125 0.96875 0 0.40625 0.10156 0.73047 0.3125 0.96875 0.21875 0.23047 0.50781 0.34375 0.875 0.34375 0.20703 0 0.39844-0.023437 0.57812-0.078125 0.1875-0.0625 0.375-0.16016 0.5625-0.29688z"/>
  </symbol>
  <symbol id="b" overflow="visible">
   <path d="m2.6875-2.1719c-0.085938-0.039063-0.16797-0.070313-0.25-0.09375-0.085938-0.019531-0.16797-0.03125-0.25-0.03125-0.25 0-0.44531 0.085937-0.57812 0.25-0.125 0.15625-0.1875 0.38281-0.1875 0.67188v1.375h-0.96875v-2.9844h0.96875v0.48438c0.11328-0.19531 0.25-0.33594 0.40625-0.42188 0.16406-0.09375 0.35938-0.14062 0.57812-0.14062h0.10938c0.039063 0 0.09375 0.007812 0.15625 0.015625z"/>
  </symbol>
  <symbol id="a" overflow="visible">
   <path d="m3.4375-1.5v0.26562h-2.2344c0.03125 0.23047 0.11328 0.40234 0.25 0.51562 0.13281 0.10547 0.32812 0.15625 0.57812 0.15625 0.20703 0 0.41406-0.023438 0.625-0.078125 0.20703-0.0625 0.42188-0.15625 0.64062-0.28125v0.73438c-0.21875 0.09375-0.44531 0.16406-0.67188 0.20312-0.23047 0.039062-0.45312 0.0625-0.67188 0.0625-0.54297 0-0.96484-0.13281-1.2656-0.40625-0.30469-0.28125-0.45312-0.67188-0.45312-1.1719 0-0.47656 0.14453-0.85938 0.4375-1.1406 0.30078-0.28125 0.70703-0.42188 1.2188-0.42188 0.46875 0 0.84375 0.14062 1.125 0.42188s0.42188 0.66406 0.42188 1.1406zm-0.96875-0.32812c0-0.17578-0.058594-0.31641-0.17188-0.42188-0.10547-0.11328-0.24219-0.17188-0.40625-0.17188-0.1875 0-0.33984 0.054687-0.45312 0.15625-0.11719 0.10547-0.1875 0.25-0.21875 0.4375z"/>
  </symbol>
  <symbol id="i" overflow="visible">
   <path d="m1.7969-1.3438c-0.19922 0-0.35156 0.039062-0.45312 0.10938-0.09375 0.0625-0.14062 0.16406-0.14062 0.29688 0 0.11719 0.035156 0.21094 0.10938 0.28125 0.082031 0.0625 0.19531 0.09375 0.34375 0.09375 0.17578 0 0.32812-0.0625 0.45312-0.1875s0.1875-0.28516 0.1875-0.48438v-0.10938zm1.4688-0.35938v1.7031h-0.96875v-0.4375c-0.125 0.17969-0.27344 0.30859-0.4375 0.39062-0.15625 0.082031-0.35156 0.125-0.57812 0.125-0.3125 0-0.57031-0.085938-0.76562-0.26562-0.1875-0.1875-0.28125-0.42188-0.28125-0.70312 0-0.35156 0.11719-0.61328 0.35938-0.78125 0.23828-0.16406 0.61719-0.25 1.1406-0.25h0.5625v-0.0625c0-0.15625-0.0625-0.26562-0.1875-0.32812-0.11719-0.070312-0.29688-0.10938-0.54688-0.10938-0.21094 0-0.40234 0.023437-0.57812 0.0625-0.17969 0.042969-0.33984 0.10156-0.48438 0.17188v-0.71875c0.19531-0.050781 0.39844-0.085938 0.60938-0.10938 0.20703-0.03125 0.41406-0.046875 0.625-0.046875 0.53906 0 0.92969 0.10938 1.1719 0.32812 0.23828 0.21094 0.35938 0.55469 0.35938 1.0312z"/>
  </symbol>
  <symbol id="c" overflow="visible">
   <path d="m1.5-3.8438v0.85938h0.98438v0.67188h-0.98438v1.2812c0 0.13672 0.023438 0.23047 0.078125 0.28125 0.0625 0.042969 0.17578 0.0625 0.34375 0.0625h0.48438v0.6875h-0.8125c-0.38672 0-0.65625-0.078125-0.8125-0.23438s-0.23438-0.42188-0.23438-0.79688v-1.2812h-0.46875v-0.67188h0.46875v-0.85938z"/>
  </symbol>
  <symbol id="h" overflow="visible">
   <path d="m2.5-2.5469v-1.6094h0.95312v4.1562h-0.95312v-0.4375c-0.13672 0.17969-0.28125 0.30859-0.4375 0.39062-0.15625 0.082031-0.33984 0.125-0.54688 0.125-0.375 0-0.68359-0.14453-0.92188-0.4375-0.23047-0.28906-0.34375-0.67188-0.34375-1.1406 0-0.45703 0.11328-0.83203 0.34375-1.125 0.23828-0.28906 0.54688-0.4375 0.92188-0.4375 0.19531 0 0.375 0.042969 0.53125 0.125 0.16406 0.085938 0.31641 0.21484 0.45312 0.39062zm-0.64062 1.9375c0.20703 0 0.36328-0.070313 0.46875-0.21875 0.11328-0.15625 0.17188-0.37891 0.17188-0.67188 0-0.28125-0.058594-0.49219-0.17188-0.64062-0.10547-0.15625-0.26172-0.23438-0.46875-0.23438-0.19922 0-0.35547 0.078125-0.46875 0.23438-0.10547 0.14844-0.15625 0.35938-0.15625 0.64062 0 0.29297 0.050781 0.51562 0.15625 0.67188 0.11328 0.14844 0.26953 0.21875 0.46875 0.21875z"/>
  </symbol>
  <symbol id="g" overflow="visible">
   <path d="m2.0469-0.60938c0.20703 0 0.36328-0.070313 0.46875-0.21875 0.11328-0.15625 0.17188-0.37891 0.17188-0.67188 0-0.28125-0.058594-0.49219-0.17188-0.64062-0.10547-0.15625-0.26172-0.23438-0.46875-0.23438-0.19922 0-0.35547 0.078125-0.46875 0.23438-0.10547 0.14844-0.15625 0.35938-0.15625 0.64062 0 0.29297 0.050781 0.51562 0.15625 0.67188 0.11328 0.14844 0.26953 0.21875 0.46875 0.21875zm-0.625-1.9375c0.125-0.17578 0.26562-0.30469 0.42188-0.39062 0.16406-0.082031 0.35156-0.125 0.5625-0.125 0.36328 0 0.66406 0.14844 0.90625 0.4375 0.23828 0.29297 0.35938 0.66797 0.35938 1.125 0 0.46875-0.12109 0.85156-0.35938 1.1406-0.24219 0.29297-0.54297 0.4375-0.90625 0.4375-0.21094 0-0.39844-0.042969-0.5625-0.125-0.15625-0.082031-0.29688-0.21094-0.42188-0.39062v0.4375h-0.96875v-4.1562h0.96875z"/>
  </symbol>
  <symbol id="f" overflow="visible">
   <path d="m0.0625-2.9844h0.95312l0.8125 2.0156 0.6875-2.0156h0.95312l-1.2656 3.2656c-0.125 0.33203-0.27344 0.56641-0.4375 0.70312-0.16797 0.13281-0.39062 0.20312-0.67188 0.20312h-0.54688v-0.64062h0.29688c0.16406 0 0.28516-0.027344 0.35938-0.078125 0.070313-0.054688 0.12891-0.14062 0.17188-0.26562l0.03125-0.09375z"/>
  </symbol>
  <symbol id="e" overflow="visible">
   <path d="m0.45312-2.9844h0.96875v2.9844h-0.96875zm0-1.1719h0.96875v0.78125h-0.96875z"/>
  </symbol>
  <symbol id="k" overflow="visible">
   <path d="m3.4688-1.8281v1.8281h-0.96875v-1.3906c0-0.25781-0.007812-0.4375-0.015625-0.53125-0.011719-0.10156-0.03125-0.17578-0.0625-0.21875-0.03125-0.0625-0.085937-0.10938-0.15625-0.14062-0.0625-0.039062-0.13281-0.0625-0.20312-0.0625-0.21094 0-0.37109 0.078125-0.48438 0.23438-0.10547 0.15625-0.15625 0.37109-0.15625 0.64062v1.4688h-0.96875v-2.9844h0.96875v0.4375c0.13281-0.17578 0.28516-0.30469 0.45312-0.39062 0.16406-0.082031 0.34375-0.125 0.53125-0.125 0.34375 0 0.60156 0.10938 0.78125 0.32812 0.1875 0.21094 0.28125 0.51172 0.28125 0.90625z"/>
  </symbol>
  <symbol id="j" overflow="visible">
   <path d="m2.4219-4.1562v0.625h-0.51562c-0.13672 0-0.23438 0.027344-0.29688 0.078125-0.054687 0.054687-0.078125 0.13672-0.078125 0.25v0.21875h0.82812v0.67188h-0.82812v2.3125h-0.95312v-2.3125h-0.46875v-0.67188h0.46875v-0.21875c0-0.32031 0.085937-0.5625 0.26562-0.71875 0.1875-0.15625 0.47266-0.23438 0.85938-0.23438z"/>
  </symbol>
  <symbol id="d" overflow="visible">
   <path d="m1.875-2.375c-0.21094 0-0.37109 0.078125-0.48438 0.23438-0.10547 0.14844-0.15625 0.35938-0.15625 0.64062 0 0.29297 0.050781 0.51562 0.15625 0.67188 0.11328 0.14844 0.27344 0.21875 0.48438 0.21875 0.20703 0 0.36719-0.070313 0.48438-0.21875 0.11328-0.15625 0.17188-0.37891 0.17188-0.67188 0-0.28125-0.058594-0.49219-0.17188-0.64062-0.11719-0.15625-0.27734-0.23438-0.48438-0.23438zm0-0.6875c0.51953 0 0.92188 0.14062 1.2031 0.42188 0.28906 0.27344 0.4375 0.65234 0.4375 1.1406 0 0.5-0.14844 0.89062-0.4375 1.1719-0.28125 0.27344-0.68359 0.40625-1.2031 0.40625-0.51172 0-0.91406-0.13281-1.2031-0.40625-0.29297-0.28125-0.4375-0.67188-0.4375-1.1719 0-0.48828 0.14453-0.86719 0.4375-1.1406 0.28906-0.28125 0.69141-0.42188 1.2031-0.42188z"/>
  </symbol>
  <symbol id="r" overflow="visible">
   <path d="m3.2344-2.5c0.11328-0.17578 0.25391-0.3125 0.42188-0.40625 0.16406-0.10156 0.35156-0.15625 0.5625-0.15625 0.33203 0 0.58594 0.10938 0.76562 0.32812 0.1875 0.21094 0.28125 0.51172 0.28125 0.90625v1.8281h-0.96875v-1.5625c0.007813-0.019531 0.015625-0.039062 0.015625-0.0625v-0.10938c0-0.21875-0.03125-0.375-0.09375-0.46875s-0.16406-0.14062-0.29688-0.14062c-0.1875 0-0.33594 0.078125-0.4375 0.23438-0.09375 0.14844-0.14062 0.35938-0.14062 0.64062v1.4688h-0.96875v-1.5625c0-0.33203-0.03125-0.54688-0.09375-0.64062-0.054688-0.09375-0.15234-0.14062-0.29688-0.14062-0.17969 0-0.32031 0.078125-0.42188 0.23438-0.09375 0.14844-0.14062 0.35938-0.14062 0.64062v1.4688h-0.96875v-2.9844h0.96875v0.4375c0.11328-0.17578 0.24219-0.30469 0.39062-0.39062 0.15625-0.082031 0.32812-0.125 0.51562-0.125 0.20703 0 0.39062 0.054688 0.54688 0.15625 0.15625 0.09375 0.27344 0.23047 0.35938 0.40625z"/>
  </symbol>
  <symbol id="q" overflow="visible">
   <path d="m3.4688-1.8281v1.8281h-0.96875v-1.3906c0-0.25781-0.007812-0.4375-0.015625-0.53125-0.011719-0.10156-0.03125-0.17578-0.0625-0.21875-0.03125-0.0625-0.085937-0.10938-0.15625-0.14062-0.0625-0.039062-0.13281-0.0625-0.20312-0.0625-0.21094 0-0.37109 0.078125-0.48438 0.23438-0.10547 0.15625-0.15625 0.37109-0.15625 0.64062v1.4688h-0.96875v-4.1562h0.96875v1.6094c0.13281-0.17578 0.28516-0.30469 0.45312-0.39062 0.16406-0.082031 0.34375-0.125 0.53125-0.125 0.34375 0 0.60156 0.10938 0.78125 0.32812 0.1875 0.21094 0.28125 0.51172 0.28125 0.90625z"/>
  </symbol>
  <symbol id="p" overflow="visible">
   <path d="m0.5-3.9844h1.1562l1.4375 2.7344v-2.7344h0.98438v3.9844h-1.1562l-1.4375-2.7344v2.7344h-0.98438z"/>
  </symbol>
  <symbol id="o" overflow="visible">
   <path d="m0.42188-1.1719v-1.8125h0.96875v0.29688 0.60938 0.48438c0 0.24219 0.003906 0.41797 0.015625 0.53125 0.007812 0.10547 0.03125 0.17969 0.0625 0.21875 0.039062 0.0625 0.09375 0.11719 0.15625 0.15625 0.0625 0.03125 0.13281 0.046875 0.21875 0.046875 0.19531 0 0.35156-0.078125 0.46875-0.23438 0.11328-0.15625 0.17188-0.36719 0.17188-0.64062v-1.4688h0.95312v2.9844h-0.95312v-0.4375c-0.14844 0.17969-0.30469 0.30859-0.46875 0.39062-0.15625 0.082031-0.33594 0.125-0.53125 0.125-0.34375 0-0.60938-0.10156-0.79688-0.3125-0.17969-0.21875-0.26562-0.53125-0.26562-0.9375z"/>
  </symbol>
  <symbol id="n" overflow="visible">
   <path d="m0.5-3.9844h1.7031c0.50781 0 0.89844 0.11719 1.1719 0.34375 0.26953 0.21875 0.40625 0.53906 0.40625 0.95312 0 0.41797-0.13672 0.74219-0.40625 0.96875-0.27344 0.21875-0.66406 0.32812-1.1719 0.32812h-0.67188v1.3906h-1.0312zm1.0312 0.75v1.1094h0.5625c0.19531 0 0.34766-0.046875 0.45312-0.14062 0.11328-0.10156 0.17188-0.24219 0.17188-0.42188 0-0.17578-0.058594-0.3125-0.17188-0.40625-0.10547-0.09375-0.25781-0.14062-0.45312-0.14062z"/>
  </symbol>
  <symbol id="m" overflow="visible">
   <path d="m0.45312-2.9844h0.96875v2.9375c0 0.39453-0.10156 0.69531-0.29688 0.90625-0.1875 0.21875-0.46484 0.32812-0.82812 0.32812h-0.48438v-0.64062h0.17188c0.17578 0 0.29688-0.042969 0.35938-0.125 0.070312-0.074219 0.10938-0.23047 0.10938-0.46875zm0-1.1719h0.96875v0.78125h-0.96875z"/>
  </symbol>
  <symbol id="l" overflow="visible">
   <path d="m2.875-2.8906v0.76562c-0.125-0.082031-0.25781-0.14453-0.39062-0.1875-0.13672-0.039062-0.27344-0.0625-0.40625-0.0625-0.27344 0-0.48047 0.078125-0.625 0.23438-0.14844 0.15625-0.21875 0.37109-0.21875 0.64062 0 0.28125 0.070313 0.5 0.21875 0.65625 0.14453 0.15625 0.35156 0.23438 0.625 0.23438 0.14453 0 0.28516-0.019531 0.42188-0.0625 0.13281-0.039063 0.25781-0.10938 0.375-0.20312v0.78125c-0.14844 0.0625-0.29688 0.10156-0.45312 0.125-0.15625 0.03125-0.3125 0.046875-0.46875 0.046875-0.54297 0-0.96484-0.13281-1.2656-0.40625-0.30469-0.28125-0.45312-0.67188-0.45312-1.1719 0-0.48828 0.14844-0.86719 0.45312-1.1406 0.30078-0.28125 0.72266-0.42188 1.2656-0.42188 0.15625 0 0.3125 0.015625 0.46875 0.046875 0.15625 0.023437 0.30469 0.0625 0.45312 0.125z"/>
  </symbol>
 </defs>
 <g>
  <path d="m477.31 453.58c-1.2031 0-2.4062-0.32812-3.5-0.98438l-91-58.078c-1.4219-0.98438-2.5156-2.4062-2.8438-4.1562s-0.10938-3.5 0.875-4.9219l45.062-70.547c0.875-1.3125 1.8594-2.7344 2.9531-4.2656 0.10938-0.10938 0.21875-0.21875 0.21875-0.32812l0.32812-0.4375c0.875-0.98438 1.75-2.0781 2.7344-3.1719 0.98438-1.2031 2.1875-2.2969 3.5-3.6094 0.98438-0.875 1.9688-1.8594 3.1719-2.7344 0.32812-0.32812 0.65625-0.54688 0.875-0.65625 0.76562-0.65625 1.5312-1.3125 2.5156-1.8594 0.98438-0.65625 1.9688-1.3125 2.9531-1.8594 1.0938-0.65625 2.1875-1.3125 3.1719-1.8594s2.0781-1.0938 3.2812-1.6406c0.98438-0.4375 1.8594-0.875 2.7344-1.2031 0.54688-0.21875 0.98438-0.32812 1.3125-0.4375 6.8906-2.625 14.109-3.9375 21.438-3.9375 11.484 0 22.75 3.2812 32.375 9.5156 13.562 8.6406 22.969 22.203 26.469 37.953 3.5 15.859 0.65625 32.047-8.0938 45.609l-44.953 70.656c-1.3125 1.9688-3.3906 2.9531-5.5781 2.9531zm-81.922-66.609 79.953 50.969 41.453-64.969c6.7812-10.609 9.0781-23.297 6.2344-35.766-2.7344-12.359-10.062-22.969-20.781-29.75-7.5469-4.8125-16.297-7.4375-25.375-7.4375-5.7969 0-11.594 1.0938-17.062 3.1719-0.21875 0.10938-0.4375 0.10938-0.65625 0.21875h-0.10938c-0.65625 0.21875-1.3125 0.54688-1.9688 0.875-0.10938 0-0.21875 0.10938-0.32812 0.10938-1.0938 0.4375-1.8594 0.875-2.625 1.2031-0.76562 0.4375-1.5312 0.875-2.4062 1.4219-0.10938 0.10938-0.21875 0.10938-0.21875 0.21875-0.65625 0.4375-1.4219 0.875-2.1875 1.4219-0.65625 0.4375-1.0938 0.875-1.75 1.3125-0.10938 0.10938-0.32812 0.21875-0.4375 0.32812s-0.32812 0.21875-0.4375 0.32812c-0.65625 0.54688-1.4219 1.2031-2.2969 1.9688-1.0938 0.98438-1.9688 1.8594-2.7344 2.7344l-0.10938 0.10938c-0.76562 0.76562-1.5312 1.6406-2.2969 2.625l-0.21875 0.21875c-0.875 1.2031-1.6406 2.4062-2.4062 3.3906z"/>
  <path d="m386.64 549.06c-11.484 0-22.75-3.2812-32.484-9.4062-17.5-11.266-28-30.406-28-51.188 0-4.375 0.4375-8.75 1.4219-12.906 0.76562-3.3906 1.5312-6.125 2.625-8.6406 0.21875-0.65625 0.4375-1.2031 0.65625-1.75 0.10938-0.10938 0.10938-0.32812 0.21875-0.4375 0-0.10938 0-0.10938 0.10938-0.21875 0.54688-1.2031 0.98438-2.2969 1.5312-3.5 0.10938-0.32812 0.32812-0.54688 0.4375-0.875 0.76562-1.4219 1.5312-2.8438 2.4062-4.2656l45.062-70.547c1.9688-3.0625 6.0156-3.9375 9.0781-1.9688l91 58.078c1.4219 0.98438 2.5156 2.4062 2.8438 4.1562s0.10938 3.5-0.875 4.9219l-45.062 70.547c-10.938 17.5-30.078 28-50.969 28zm-42.328-81.594c-0.32812 0.76562-0.65625 1.5312-0.98438 2.2969l-0.32812 0.65625c-0.10938 0.21875-0.21875 0.4375-0.21875 0.65625-0.10938 0.21875-0.10938 0.4375-0.21875 0.54688-0.76562 1.8594-1.4219 4.0469-2.0781 6.7812-0.76562 3.1719-1.0938 6.5625-1.0938 9.9531 0 16.406 8.2031 31.391 21.875 40.141 7.5469 4.8125 16.297 7.3281 25.375 7.3281 16.406 0 31.391-8.2031 40.141-21.875l41.562-64.969-80.062-50.969-41.453 64.969c-0.65625 1.0938-1.4219 2.4062-2.0781 3.6094l-0.4375 0.875z"/>
  <path d="m379.09 406.88h-208.91c-3.6094 0-6.5625-2.9531-6.5625-6.5625v-193.59c0-3.6094 2.9531-6.5625 6.5625-6.5625h288.53c3.6094 0 6.5625 2.9531 6.5625 6.5625v90.016c0 2.7344-1.6406 5.1406-4.1562 6.125l-0.32812 0.10938c-0.4375 0.21875-0.875 0.4375-1.4219 0.54688h-0.10938-0.10938c-0.54688 0.21875-1.2031 0.4375-1.5312 0.65625l-0.65625 0.32812c-1.0938 0.4375-1.8594 0.875-2.625 1.2031-0.10938 0.10938-0.21875 0.10938-0.32812 0.21875-0.54688 0.21875-1.2031 0.65625-1.8594 1.0938-0.21875 0.10938-0.32812 0.21875-0.54688 0.32812-0.65625 0.4375-1.4219 0.875-2.1875 1.4219-0.65625 0.4375-1.0938 0.875-1.75 1.3125-0.10938 0.10938-0.32812 0.21875-0.4375 0.32812s-0.32812 0.21875-0.4375 0.32812c-0.65625 0.54688-1.4219 1.2031-2.2969 1.9688l-0.10938 0.10938c-0.76562 0.65625-1.5312 1.5312-2.625 2.625-0.10938 0.10938-0.21875 0.21875-0.21875 0.32812-0.875 0.875-1.6406 1.8594-2.2969 2.625-0.98438 1.3125-1.75 2.4062-2.4062 3.5l-44.953 70.547c-0.10938 0.21875-0.32812 0.4375-0.54688 0.65625l-6.6719 10.609c-1.2031 1.9688-3.2812 3.1719-5.5781 3.1719zm-202.34-13.125h198.73l5.25-8.2031c0.10938-0.21875 0.32812-0.4375 0.54688-0.76562l44.625-69.891c0.875-1.3125 1.8594-2.7344 2.9531-4.2656l0.10938-0.10938c0.875-1.0938 1.9688-2.5156 3.2812-3.8281 1.3125-1.4219 2.4062-2.625 3.5-3.6094 0.875-0.875 1.8594-1.75 3.0625-2.625 0.32812-0.32812 0.65625-0.54688 0.875-0.65625 0.76562-0.65625 1.5312-1.3125 2.5156-1.8594 0.875-0.65625 1.8594-1.2031 2.8438-1.75 1.2031-0.76562 2.2969-1.5312 3.5-2.0781 0.875-0.4375 1.8594-0.98438 3.0625-1.4219l0.65625-0.32812v-79.078h-275.52z"/>
  <path d="m458.72 213.28h-288.53c-3.6094 0-6.5625-2.9531-6.5625-6.5625v-40.469c0-1.4219 0.4375-2.7344 1.3125-3.9375l41.234-55.781c1.2031-1.6406 3.1719-2.625 5.25-2.625h206.06c2.0781 0 4.0469 0.98438 5.25 2.625l41.234 55.781c0.875 1.0938 1.3125 2.5156 1.3125 3.9375v40.469c0 3.6094-2.9531 6.5625-6.5625 6.5625zm-281.97-13.125h275.41v-31.719l-37.953-51.406h-199.5l-37.953 51.406v31.719z"/>
  <path d="m436.95 317.73c-1.5312 0-3.0625-0.54688-4.375-1.6406-1.4219-1.3125-2.1875-3.0625-2.1875-4.9219 0-1.5312 0.54688-3.0625 1.6406-4.375 1.4219-1.5312 2.5156-2.7344 3.7188-3.8281 2.7344-2.4062 6.7812-2.1875 9.1875 0.4375s2.2969 6.7812-0.32812 9.1875c-1.0938 0.98438-1.9688 1.9688-2.7344 2.8438-1.3125 1.6406-3.1719 2.2969-4.9219 2.2969z"/>
  <path d="m421.09 117.03h-213.17c-12.906 0-23.297-10.391-23.297-23.297v-58.406c0-12.906 10.5-23.297 23.297-23.297h213.17c12.906 0 23.297 10.5 23.297 23.297v58.516c0 12.797-10.391 23.188-23.297 23.188zm-213.17-91.984c-5.5781 0-10.172 4.5938-10.172 10.172v58.516c0 5.4688 4.7031 10.172 10.172 10.172h213.17c5.5781 0 10.172-4.5938 10.172-10.172v-58.406c0-5.5781-4.5938-10.172-10.172-10.172h-213.17z"/>
  <path d="m434 321.12c-1.4219 0-2.9531-0.4375-4.1562-1.4219-2.7344-2.2969-3.2812-6.3438-1.0938-9.1875 0.875-1.2031 2.0781-2.5156 3.3906-3.9375 2.5156-2.5156 6.6719-2.625 9.1875-0.10938 2.625 2.5156 2.7344 6.5625 0.21875 9.1875-0.76562 0.76562-1.5312 1.6406-2.2969 2.625l-0.32812 0.4375c-1.0938 1.6406-2.9531 2.4062-4.9219 2.4062z"/>
  <path d="m379.09 406.88c-1.2031 0-2.4062-0.32812-3.5-0.98438-3.0625-1.9688-3.9375-6.0156-1.9688-9.0781l7.2188-11.266c1.2031-1.8594 3.2812-3.0625 5.5781-3.0625 2.4062 0 4.5938 1.3125 5.7969 3.3906s1.0938 4.7031-0.21875 6.6719l-7.2188 11.266c-1.4219 1.9688-3.5 3.0625-5.6875 3.0625z"/>
  <path d="m334.03 483.55h-96.688c-40.688 0-73.719-33.031-73.719-73.719v-9.5156c0-3.6094 2.9531-6.5625 6.5625-6.5625h208.8c2.4062 0 4.5938 1.3125 5.7969 3.3906s1.0938 4.7031-0.21875 6.6719l-37.844 59.172c-0.76562 1.2031-1.4219 2.4062-2.0781 3.5-0.10938 0.21875-0.21875 0.4375-0.54688 0.875-0.32812 0.76562-0.65625 1.5312-0.98438 2.2969 0 0.10938-0.10938 0.32812-0.21875 0.4375-0.10938 0.32812-0.32812 0.65625-0.32812 0.875-0.10938 0.21875-0.10938 0.4375-0.21875 0.65625-0.76562 1.8594-1.4219 4.0469-2.0781 6.7812-0.4375 2.9531-3.1719 5.1406-6.2344 5.1406zm-157.28-76.672v2.9531c0 33.359 27.234 60.594 60.594 60.594h91.547c0.32812-1.2031 0.76562-2.4062 1.2031-3.5 0.32812-0.875 0.65625-1.75 0.98438-2.5156 0.54688-1.0938 0.98438-2.1875 1.5312-3.2812 0.10938-0.32812 0.32812-0.54688 0.4375-0.76562 0.76562-1.4219 1.5312-2.7344 2.4062-4.2656l31.391-49.109z"/>
  <path d="m338.95 470.2c-0.98438 0-2.0781-0.21875-2.9531-0.76562-3.1719-1.6406-4.4844-5.5781-2.8438-8.75 0.76562-1.6406 1.6406-3.0625 2.625-4.7031 1.8594-3.0625 5.9062-4.0469 9.0781-2.0781 1.9688 1.2031 3.0625 3.3906 3.0625 5.5781 0 1.2031-0.32812 2.4062-0.98438 3.5-0.76562 1.2031-1.5312 2.5156-2.0781 3.7188-1.3125 2.1875-3.6094 3.5-5.9062 3.5z"/>
  <path d="m343.22 469.66-6.0156-2.5156-6.0156-2.7344c0.4375-1.0938 0.98438-2.1875 1.5312-3.3906 1.6406-3.2812 5.5781-4.5938 8.75-2.9531 2.2969 1.2031 3.6094 3.5 3.6094 5.9062 0 0.98438-0.21875 1.9688-0.65625 2.9531-0.32812 0.875-0.76562 1.8594-1.2031 2.7344z"/>
  <path d="m334.03 483.55h-96.688c-40.688 0-73.719-33.031-73.719-73.719v-243.58c0-1.4219 0.4375-2.7344 1.3125-3.9375l41.234-55.781c2.1875-2.9531 6.2344-3.5 9.1875-1.4219 2.9531 2.1875 3.5 6.2344 1.4219 9.1875l-40.031 54.141v241.39c0 33.359 27.234 60.594 60.594 60.594h96.688c3.6094 0 6.5625 2.9531 6.5625 6.5625s-2.9531 6.5625-6.5625 6.5625z"/>
  <path d="m336.44 475.67c-0.65625 0-1.2031-0.10938-1.8594-0.32812-3.5-1.0938-5.4688-4.7031-4.375-8.2031 0.32812-0.98438 0.76562-2.0781 1.2031-3.0625 1.6406-3.2812 5.5781-4.5938 8.8594-2.9531s4.5938 5.5781 2.9531 8.8594c-0.10938 0.32812-0.32812 0.65625-0.32812 0.875-0.98438 2.9531-3.6094 4.8125-6.4531 4.8125z"/>
  <path d="m442.97 312.16c-1.6406 0-3.3906-0.65625-4.5938-1.8594-2.625-2.5156-2.625-6.6719 0-9.2969 0.65625-0.65625 1.2031-0.98438 1.5312-1.2031 2.9531-2.0781 7.1094-1.3125 9.1875 1.75 2.0781 2.9531 1.3125 7-1.6406 9.0781-1.4219 0.98438-2.9531 1.5312-4.4844 1.5312z"/>
  <path d="m445.81 309.97c-2.0781 0-4.1562-0.98438-5.3594-2.8438-2.0781-2.9531-1.3125-7.1094 1.6406-9.0781 0.98438-0.65625 1.9688-1.3125 2.8438-1.8594 1.2031-0.875 2.5156-1.5312 3.7188-2.0781 3.2812-1.5312 7.2188-0.10938 8.75 3.1719s0.10938 7.2188-3.1719 8.75c-0.54688 0.21875-1.2031 0.65625-1.8594 1.0938-0.21875 0.10938-0.32812 0.21875-0.54688 0.32812-0.65625 0.4375-1.4219 0.875-2.1875 1.4219-1.3125 0.65625-2.625 1.0938-3.8281 1.0938z"/>
  <path d="m454.34 305.05c-2.2969 0-4.4844-1.2031-5.6875-3.2812-1.8594-3.1719-0.76562-7.1094 2.4062-8.9688 1.2031-0.65625 2.2969-1.0938 3.2812-1.5312h0.10938c3.3906-1.3125 7.2188 0.32812 8.5312 3.7188s-0.32812 7.2188-3.7188 8.5312h-0.10938c-0.54688 0.21875-1.2031 0.4375-1.5312 0.65625-0.98438 0.65625-2.1875 0.875-3.2812 0.875z"/>
  <path d="m457.62 303.73c-2.2969 0-4.4844-1.2031-5.6875-3.2812-1.3125-2.1875-1.2031-4.9219 0.10938-6.8906v-125.12l-39.922-54.031c-2.1875-2.9531-1.5312-7 1.4219-9.1875s7-1.5312 9.1875 1.4219l41.234 55.781c0.875 1.0938 1.3125 2.5156 1.3125 3.9375v130.48c0 2.7344-1.6406 5.1406-4.1562 6.125l-0.32812 0.10938c-0.98438 0.4375-2.0781 0.65625-3.1719 0.65625z"/>
  <path d="m421.09 117.03h-213.17c-12.906 0-23.297-10.391-23.297-23.297v-58.406c0-12.906 10.5-23.297 23.297-23.297h213.17c12.906 0 23.297 10.5 23.297 23.297v58.516c0 12.797-10.391 23.188-23.297 23.188zm-213.17-91.984c-5.5781 0-10.172 4.5938-10.172 10.172v58.516c0 5.4688 4.7031 10.172 10.172 10.172h213.17c5.5781 0 10.172-4.5938 10.172-10.172v-58.406c0-5.5781-4.5938-10.172-10.172-10.172h-213.17z"/>
  <path d="m458.72 213.28h-288.53c-3.6094 0-6.5625-2.9531-6.5625-6.5625s2.9531-6.5625 6.5625-6.5625h288.53c3.6094 0 6.5625 2.9531 6.5625 6.5625s-2.9531 6.5625-6.5625 6.5625z"/>
  <path d="m378.98 406.88h-208.8c-3.6094 0-6.5625-2.9531-6.5625-6.5625s2.9531-6.5625 6.5625-6.5625h208.8c3.6094 0 6.5625 2.9531 6.5625 6.5625s-2.8438 6.5625-6.5625 6.5625z"/>
  <path d="m386.53 549.06c-11.375 0-22.531-3.1719-32.375-9.4062-17.5-11.266-28-30.406-28-51.188 0-4.375 0.4375-8.75 1.4219-12.906 0.76562-3.3906 1.5312-6.125 2.625-8.6406 0.21875-0.65625 0.4375-1.2031 0.65625-1.75 0.10938-0.10938 0.10938-0.32812 0.21875-0.4375 0-0.10938 0-0.10938 0.10938-0.21875 0.54688-1.2031 0.98438-2.2969 1.5312-3.5 0.10938-0.32812 0.32812-0.54688 0.4375-0.76562 0.76562-1.4219 1.5312-2.7344 2.4062-4.2656l37.844-59.281 7.1094-11.266c0.10938-0.21875 0.32812-0.54688 0.54688-0.76562l44.625-69.891c0.875-1.3125 1.8594-2.7344 2.9531-4.2656l0.10938-0.10938c0.875-1.0938 1.9688-2.5156 3.2812-3.8281 1.3125-1.4219 2.4062-2.625 3.5-3.6094 0.875-0.875 1.8594-1.75 3.0625-2.625 0.32812-0.32812 0.65625-0.54688 0.875-0.65625 0.76562-0.65625 1.5312-1.3125 2.5156-1.8594 0.98438-0.65625 1.9688-1.3125 2.9531-1.8594 1.0938-0.65625 2.1875-1.3125 3.1719-1.8594s2.0781-1.0938 3.2812-1.6406c0.98438-0.4375 1.8594-0.875 2.7344-1.2031 0.54688-0.21875 0.98438-0.32812 1.3125-0.4375 17.828-6.6719 37.953-4.5938 53.812 5.5781 13.562 8.6406 22.969 22.203 26.469 37.953 3.5 15.859 0.65625 32.047-8.0938 45.609l-44.734 70.656-45.062 70.547c-8.6406 13.562-22.203 22.969-38.062 26.469-4.375 0.98438-8.8594 1.4219-13.234 1.4219zm-42.219-81.594c-0.32812 0.76562-0.65625 1.5312-0.98438 2.2969l-0.32812 0.65625c-0.10938 0.21875-0.21875 0.4375-0.21875 0.65625-0.10938 0.21875-0.10938 0.4375-0.21875 0.54688-0.76562 1.8594-1.4219 4.0469-2.0781 6.7812-0.76562 3.1719-1.0938 6.5625-1.0938 9.9531 0 16.406 8.2031 31.391 21.875 40.141 10.609 6.7812 23.297 8.9688 35.656 6.2344 12.469-2.7344 22.969-10.062 29.75-20.781l45.062-70.547 45.062-70.438c6.7812-10.609 9.0781-23.297 6.2344-35.766-2.7344-12.359-10.062-22.969-20.781-29.75-12.578-7.9844-28.328-9.625-42.328-4.2656-0.21875 0.10938-0.4375 0.10938-0.65625 0.21875h-0.10938c-0.65625 0.21875-1.3125 0.54688-1.9688 0.875-0.10938 0-0.21875 0.10938-0.32812 0.10938-1.0938 0.4375-1.8594 0.875-2.625 1.2031-0.76562 0.4375-1.5312 0.875-2.4062 1.4219-0.10938 0.10938-0.21875 0.10938-0.21875 0.21875-0.65625 0.4375-1.4219 0.875-2.1875 1.4219-0.65625 0.4375-1.0938 0.875-1.75 1.3125-0.10938 0.10938-0.32812 0.21875-0.4375 0.32812s-0.32812 0.21875-0.4375 0.32812c-0.65625 0.54688-1.4219 1.2031-2.2969 1.9688l-0.10938 0.10938c-0.76562 0.65625-1.5312 1.5312-2.625 2.625-0.10938 0.10938-0.21875 0.21875-0.21875 0.32812-0.875 0.875-1.6406 1.8594-2.2969 2.625-0.98438 1.3125-1.75 2.4062-2.4062 3.5l-44.953 70.547c-0.10938 0.21875-0.32812 0.4375-0.54688 0.65625l-6.6719 10.609-37.844 59.172c-0.76562 1.2031-1.4219 2.4062-2.0781 3.5 0 0.4375-0.21875 0.76562-0.4375 1.2031z"/>
  <path d="m477.31 453.58c-1.2031 0-2.4062-0.32812-3.5-0.98438l-90.781-57.859c-1.9688-1.0938-3.2812-3.2812-3.2812-5.6875 0-3.6094 2.9531-6.5625 6.5625-6.5625h0.10938c1.2031 0 2.5156 0.32812 3.5 0.98438l91 58.078c3.0625 1.9688 3.9375 6.0156 1.9688 9.0781-1.3125 1.8594-3.3906 2.9531-5.5781 2.9531z"/>
  <path d="m502.03 377.67c-1.2031 0-2.4062-0.32812-3.5-0.98438-3.0625-1.9688-3.9375-6.0156-1.9688-9.0781 9.625-15.094 5.25-35.219-9.8438-44.953-3.0625-1.9688-3.9375-6.0156-1.9688-9.0781s6.0156-3.9375 9.0781-1.9688c21.109 13.562 27.344 41.781 13.781 63-1.3125 1.9688-3.3906 3.0625-5.5781 3.0625z"/>
  <path d="m228.7 82.906c-3.6094 0-6.5625-2.9531-6.5625-6.5625v-26.906c0-3.6094 2.9531-6.5625 6.5625-6.5625s6.5625 2.9531 6.5625 6.5625v26.906c0 3.6094-2.9531 6.5625-6.5625 6.5625z"/>
  <path d="m274.64 82.906c-3.6094 0-6.5625-2.9531-6.5625-6.5625v-26.906c0-3.6094 2.9531-6.5625 6.5625-6.5625s6.5625 2.9531 6.5625 6.5625v26.906c0 3.6094-2.8438 6.5625-6.5625 6.5625z"/>
  <path d="m320.8 82.906c-3.6094 0-6.5625-2.9531-6.5625-6.5625v-26.906c0-3.6094 2.9531-6.5625 6.5625-6.5625s6.5625 2.9531 6.5625 6.5625v26.906c0 3.6094-2.9531 6.5625-6.5625 6.5625z"/>
  <path d="m366.84 82.906c-3.6094 0-6.5625-2.9531-6.5625-6.5625v-26.906c0-3.6094 2.9531-6.5625 6.5625-6.5625s6.5625 2.9531 6.5625 6.5625v26.906c0 3.6094-2.9531 6.5625-6.5625 6.5625z"/>
  <path d="m412.89 82.906c-3.6094 0-6.5625-2.9531-6.5625-6.5625v-26.906c0-3.6094 2.9531-6.5625 6.5625-6.5625s6.5625 2.9531 6.5625 6.5625v26.906c0 3.6094-2.9531 6.5625-6.5625 6.5625z"/>
  <use x="70" y="576.40625" xlink:href="#s"/>
  <use x="74.011719" y="576.40625" xlink:href="#b"/>
  <use x="76.710938" y="576.40625" xlink:href="#a"/>
  <use x="80.417969" y="576.40625" xlink:href="#i"/>
  <use x="84.109375" y="576.40625" xlink:href="#c"/>
  <use x="86.722656" y="576.40625" xlink:href="#a"/>
  <use x="90.433594" y="576.40625" xlink:href="#h"/>
  <use x="96.25" y="576.40625" xlink:href="#g"/>
  <use x="100.167969" y="576.40625" xlink:href="#f"/>
  <use x="105.636719" y="576.40625" xlink:href="#e"/>
  <use x="107.507812" y="576.40625" xlink:href="#g"/>
  <use x="111.425781" y="576.40625" xlink:href="#b"/>
  <use x="114.121094" y="576.40625" xlink:href="#i"/>
  <use x="117.8125" y="576.40625" xlink:href="#k"/>
  <use x="121.703125" y="576.40625" xlink:href="#h"/>
  <use x="125.621094" y="576.40625" xlink:href="#e"/>
  <use x="127.492188" y="576.40625" xlink:href="#j"/>
  <use x="129.875" y="576.40625" xlink:href="#f"/>
  <use x="70" y="581.875" xlink:href="#j"/>
  <use x="72.378906" y="581.875" xlink:href="#b"/>
  <use x="75.078125" y="581.875" xlink:href="#d"/>
  <use x="78.832031" y="581.875" xlink:href="#r"/>
  <use x="86.4375" y="581.875" xlink:href="#c"/>
  <use x="89.050781" y="581.875" xlink:href="#q"/>
  <use x="92.941406" y="581.875" xlink:href="#a"/>
  <use x="98.554688" y="581.875" xlink:href="#p"/>
  <use x="103.132812" y="581.875" xlink:href="#d"/>
  <use x="106.890625" y="581.875" xlink:href="#o"/>
  <use x="110.785156" y="581.875" xlink:href="#k"/>
  <use x="116.582031" y="581.875" xlink:href="#n"/>
  <use x="120.589844" y="581.875" xlink:href="#b"/>
  <use x="123.285156" y="581.875" xlink:href="#d"/>
  <use x="127.042969" y="581.875" xlink:href="#m"/>
  <use x="128.917969" y="581.875" xlink:href="#a"/>
  <use x="132.625" y="581.875" xlink:href="#l"/>
  <use x="135.867188" y="581.875" xlink:href="#c"/>
 </g>
</svg>
