<?xml version="1.0" encoding="UTF-8"?>
<svg width="700pt" height="700pt" version="1.1" viewBox="0 0 700 700" xmlns="http://www.w3.org/2000/svg" xmlns:xlink="http://www.w3.org/1999/xlink">
 <g>
  <path d="m557.61 190.23c-23.93-23.566-56.949-35.52-90.418-32.727-16.055 1.375-31.695 5.8086-46.082 13.066-4.6758 2.2969-9.6719 3.8711-14.816 4.668 0.24219-0.59766 0.39844-1.2266 0.46484-1.8672 0.48438-8.3711 0.17188-16.77-0.93359-25.082 8.1953 3.5977 17.07 5.3906 26.016 5.25 25.781-1.0898 50.555-10.32 70.762-26.367 36.168-27.242 54.891-67.609 44.625-95.957v-0.003907c-0.39453-1.0977-1.1055-2.0508-2.043-2.7422-24.441-17.906-68.426-10.965-104.54 16.336-9.9609 7.4141-18.871 16.145-26.48 25.957l3.1484-42.293c0.12891-1.5664-0.38281-3.1172-1.4141-4.3047-1.0312-1.1836-2.5-1.9062-4.0703-1.9922-105.87-6.6445-212.05-6.6445-317.91 0-1.5586 0.089843-3.0195 0.80078-4.0469 1.9727-1.0312 1.1719-1.5508 2.7109-1.4375 4.2695l35.816 479.5c0.066406 0.81641 0.30469 1.6133 0.69922 2.332l2.9766 25.898c0.32812 2.9688 2.8438 5.2109 5.832 5.1914h189.58c5.0234 1.0625 10.109 1.8008 15.227 2.2188 11.172 0.94141 22.418 0.19531 33.367-2.2188 0.84766-0.011719 1.6836-0.21094 2.4492-0.58203 8.2344-2 16.219-4.9141 23.801-8.6914 15.578 7.7656 32.762 11.762 50.168 11.668 3.1484 0 6.3008 0 9.5078-0.41016 81.898-6.6484 150.79-98.176 153.65-204.4 1.6914-60.434-17.965-114.62-53.898-148.69zm-109.96-136.09c31.387-23.684 68.484-30.801 89.02-17.5 7.1758 23.332-9.918 57.285-41.301 80.965-31.383 23.684-68.426 30.859-89.133 17.5-7-23.562 10.031-57.281 41.414-80.965zm-42.23-20.648-4.3164 57.285v0.99219-0.003907c-2.8086 5.8672-4.9414 12.031-6.3594 18.375-9-19.582-23.859-35.891-42.527-46.668-2.8164-1.6094-6.4062-0.62891-8.0195 2.1875-1.6094 2.8203-0.63281 6.4102 2.1875 8.0234 24.207 13.535 51.391 47.602 48.477 99.168v-0.003906c-0.015625 1.1133 0.28906 2.207 0.875 3.1523-7.1211-0.27734-14.102-2.0664-20.477-5.25-14.324-7.2852-29.902-11.777-45.906-13.242-33.395-2.7461-66.324 9.2031-90.184 32.727-11.906 11.453-21.941 24.699-29.75 39.258-3.7695 1.0586-7.4727 2.3438-11.086 3.8477-8.0078 3.5898-16.715 5.3438-25.492 5.1328-8.7344 0.19922-17.402-1.5547-25.375-5.1328-9.3828-4.1172-19.562-6.1094-29.805-5.832-0.91797 0.023438-1.8203 0.26172-2.625 0.69922l-14.527-194.71c101.54-6.125 203.36-6.125 304.91 0zm-220.38 305.43c1.6328 62.941 26.598 120.87 63.641 158.96-37.625 0-75.543 1.168-112.99 3.4414l-0.46484-3.9648-19.367-258.77c0.58203 0.20703 1.1914 0.32422 1.8086 0.35156 8.7734-0.21094 17.48 1.543 25.488 5.1328 9.3633 4.1211 19.527 6.1133 29.75 5.832 10.031 0.16797 19.977-1.8203 29.168-5.832-12.484 30.008-18.293 62.371-17.031 94.852zm-46.145 190.75-1.8672-16.684c40.832-2.5078 82.832-3.6758 124.07-3.5h0.003906c9.1641 7.8828 19.227 14.656 29.98 20.184zm460.83-191.04c-2.6836 100.39-66.793 187.13-142.8 193.32h0.003906c-19.406 1.6406-38.867-2.4141-56-11.668-1.7148-0.91016-3.7695-0.91016-5.4844 0-17.145 9.2227-36.598 13.273-56 11.668-26.938-2.7656-52.273-14.117-72.273-32.375-40.543-35-68.66-95.199-70.465-160.94h-0.003906c-1.4844-34.879 5.8594-69.57 21.352-100.86 0.03125-0.15234 0.03125-0.3125 0-0.46484 7.3828-14.344 17.078-27.371 28.699-38.559 21.535-21.438 51.379-32.375 81.668-29.926 14.57 1.2148 28.781 5.1758 41.883 11.668 17.59 8.8711 38.348 8.8711 55.941 0 13.121-6.5 27.352-10.457 41.941-11.668 30.195-2.3945 59.926 8.5391 81.375 29.926 33.773 31.734 51.859 82.715 50.281 139.88z"/>
 </g>
</svg>
