<?xml version="1.0" encoding="UTF-8"?>
<svg width="700pt" height="700pt" version="1.1" viewBox="0 0 700 700" xmlns="http://www.w3.org/2000/svg">
 <g>
  <path d="m521.77 80.191c-5.2305-2.9453-8.0391-7.8906-12.699-11.398-3.7266-2.5625-7.875-4.4492-12.254-5.5742-12.277-3.7227-25.5-4.1328-37.93-7.4492-12.555-3.2227-25.492-4.7344-38.453-4.4961-5.7539-0.0625-11.484 0.75-16.996 2.4062-2.0859 0.74219-3.9414 2.0156-5.3867 3.6953l-1.0078 0.55859c-16.312 15.324-30.762 32.516-43.055 51.219-12.082 19.648-22.281 40.395-30.461 61.965-4.3359 10.137-8.7539 20.121-12.48 30.5-4.7617 13.281-8.5352 26.789-14.094 39.789-9.3555 19.777-24.27 36.402-42.918 47.84-27.758 19.164-69.238 36.062-76.566 72.867v0.003907c-2.2969 18.703-1.375 37.664 2.7227 56.062 2.4375 15.93 9.6992 30.715 11.402 46.797 1.0586 10.016-3.6797 13.859-11.871 18.668-8.1406 4.7812-17.434 7.0273-25.605 11.742-2.4727 1.4258-1.4688 6.0703 1.6289 5.6602 14.668-2.5742 28.438-8.8438 40.012-18.215 12.004-9.9219 6.4961-26.398 2.6875-39.367-9.5664-32.609-25.133-76.219 1.6328-104.48v-0.003907c14.109-12.887 29.742-24 46.551-33.09 16.266-9.3828 30.824-21.449 43.059-35.691 0.19922 3.2344 0.86719 6.4219 1.9766 9.4648 0.20703 0.63281 0.80078 1.0547 1.4688 1.0469 0.66406-0.011719 1.2461-0.45312 1.4336-1.0938 1.1719-4.2734 1.75-8.6875 1.7188-13.117 0.30859-3.6641 1.1523-7.2148 1.5469-10.824l0.76953-2.1914h0.003906c7.3242-4.0938 15.109-7.2969 23.195-9.5391 9.8633-1.9023 20.004-1.793 29.824 0.31641 1.1523 0.26563 2.3438-0.26172 2.9258-1.293 0.58203-1.0312 0.41406-2.3242-0.41016-3.1719-9.4219-6.5664-21.547-7.8594-32.145-3.4297-7.5508 1.7891-14.676 5.0469-20.969 9.5859l1.6602-5.5273c3.8594-12.656 7.4375-25.387 11.656-37.941 8.2695-23.168 19.699-45.082 33.965-65.125 16.82-24.773 33.852-49.367 51.102-73.781l1.1914-0.20703c1.7266-0.63281 3.3906-1.4219 4.9727-2.3594 3.0625-1.0039 6.2422-1.6016 9.457-1.7812 12.406-0.73437 24.855-0.41016 37.207 0.97656 12.945 1.2656 25.801 3.3672 38.477 6.293 10.652 3.8086 20.812 8.8711 30.27 15.078 0.92578 0.40234 1.6953-0.87109 0.78516-1.3828z"/>
  <path d="m449.7 389.57c-19.012-10.438-37.789-21.281-56.738-31.859-9.1328-5.0977-17.375-11.594-26.719-16.371-9.1133-4.3359-19.148-6.3789-29.23-5.9492-23.328 1.4258-46.238 6.8477-67.73 16.023-9.3516 3.5781-18.641 7.543-28.203 10.551-7.7695 2.4648-20.07 6.6641-26.648-0.24609-1.0391-1.0859-2.4922 0.33594-1.9219 1.5273l0.003906-0.003907c2.9961 6.0742 8.8555 10.227 15.582 11.043l0.011718 0.066406c1.4805 14.141-0.36719 28.434-5.3984 41.73-1.5273 6.8789-2.5742 13.848-3.1445 20.867-0.63672 8.2266 3.3242 12.32 6.4258 19.137 0.51562 1.1406 2.4727 0.28125 2.0039-0.87891-1.2461-3.1094 0.64453-7.2422 1.1133-10.344l0.40234-2.6875-0.003906 0.003906c0.54688 8.9336 2.8398 17.676 6.7461 25.73 5.3867 11.512 15.047 20.473 26.93 24.977 31.004 9.6055 64.07 10.367 95.484 2.2031 23.617-4.5352 45.031-16.852 60.824-34.988 7.5977-9.8164 12.34-21.539 13.715-33.879 1.3711-12.336-0.68359-24.812-5.9375-36.062-1.1016-2.2266-4.2383-0.50781-3.7773 1.668 3.1406 14.887 0.76172 30.406-6.6914 43.668-19.527 3.375-39.574-1.5977-55.258-13.711-10.633-7.125-20.414-15.449-29.145-24.805-8.1094-7.4766-14.777-16.371-19.68-26.246-0.26172-0.61719-1.2383-0.375-1.0195 0.29297 8.6406 23.832 24.441 44.41 45.234 58.91 10.738 8.207 23.156 13.941 36.367 16.789 5.2188 1.0664 10.582 1.2344 15.859 0.49609-1.207 1.582-2.4531 3.1406-3.7773 4.668h-0.003906c-2.0977 2.4141-4.3672 4.668-6.7969 6.7461-10.824 2.875-21.902 4.6914-33.078 5.4258-13.273-0.5-26.18-4.4805-37.426-11.543-11.902-6.5508-22.172-15.707-30.039-26.785-7.625-10.547-13.34-22.32-20.672-33.059-0.67188-0.98438-2.2305-0.054687-1.5898 0.96484 8.0195 12.566 12.465 26.746 19.711 39.684 7.7812 12.512 17.922 23.391 29.855 32.031 10.117 7.8867 22.551 12.227 35.375 12.344l-4.543 1.2148c-25.469 6.2539-51.992 6.9023-77.738 1.9062-11.078-1.6953-21.387-6.6992-29.566-14.355-9.2578-8.3984-15.449-19.645-17.598-31.961l-0.45703-0.85156 0.33594-2.1523c1.0977-6.6523 2.5039-13.277 4.0977-19.824v0.003906c4.332-11.883 5.8164-24.613 4.3359-37.176 3.3789-0.39453 6.7148-1.0938 9.9688-2.0977 11.555-3.5234 22.703-8.8477 33.98-13.164 12.07-4.4648 24.441-8.0625 37.023-10.77 12.496-3.3906 25.73-2.8984 37.941 1.4062 10.07 5.1562 19.734 11.066 28.91 17.68 18.055 13.473 38.914 22.695 61.027 26.98 2.7109 0.25 3.4414-3.7773 1.2656-4.9688z"/>
  <path d="m364.5 216.36c-10.07 4.6484-21.562 5.1602-32.004 1.4219-1.1133-0.62109-2.3984 0.97656-1.3594 1.8203 8.1445 6.6328 29.422 11.039 35.504-0.54688 0.35547-0.66016 0.28125-1.4688-0.18359-2.0547-0.46484-0.58594-1.2344-0.83594-1.957-0.64062z"/>
  <path d="m389.5 142.86c-12.684 15.715-30.695 26.234-50.613 29.562-3.0312 0.99219-4.7266 4.2109-3.8359 7.2734 0.89453 3.0625 4.0547 4.8633 7.1445 4.0742 10.996-1.7305 21.434-6.0039 30.484-12.488 8.2891-7.6094 14.355-17.332 17.543-28.129 0.16797-0.44141-0.49219-0.66016-0.72266-0.29297z"/>
  <path d="m473.03 256.98c-2.3633-5.4531-6.1484-10.168-10.957-13.664-6.0703-5.2109-15.141-8.4258-19.699-14.953-0.34375-0.51172-1.0312-0.66797-1.5586-0.34766-0.53125 0.32031-0.71094 1-0.41406 1.543 1.9844 4.375 4.4375 8.5234 7.3086 12.371 3.5508 3.8789 7.6914 7.0938 11.441 10.766 4.5859 4.5156 8.0664 10.031 10.176 16.109 1.1289 8.0859 0.72656 16.312-1.1875 24.25-0.53125 4.2422-1.3633 8.4414-2.4844 12.566-0.99219 3.5898-2.4727 11.836-6.2578 13.441-3.1875 1.3594-7.1602-0.51562-10.305-1.1992-2.3242-0.18359-4.6602 0.085937-6.8828 0.78906-2.0352 0.45703-4.0352 1.0586-5.9844 1.793-8.4727-4.3203-15.711-10.715-21.039-18.594-4.5312-6.5312-10.109-12.27-16.504-16.988 0.76562-9.3789-1.2969-18.773-5.9219-26.969 5.5547-0.10156 10.922-2.0195 15.281-5.4648 4.3594-3.4453 7.4688-8.2227 8.8516-13.605 2.1875-3.3633 4.1914-6.8477 6.0039-10.43 3.8203-6.3281 9.4805-11.34 16.227-14.367 1.0078-0.38672 0.92578-2.0977-0.30078-1.9883-6.7539 0.21875-13.109 3.2266-17.559 8.3125 1.332-13.305 1.9922-26.672 1.9805-40.043l0.16016-0.69141-0.10156-0.82422 0.007812-0.12109c0.054688-1.1602-1.7266-1.3242-2.0039-0.24219l-0.16016 0.69531c-4.2578 10.863-14.395 21.176-27.121 15.875-9.4453-3.9219-11.547-17.633-11.574-26.508 0-1.1602-1.6797-1.0938-1.7695 0.027344-1.1406 14.316-3.0234 30.434 13.402 36.254l0.003906 0.003906c4.3359 1.8828 9.2422 1.9766 13.648 0.25391 4.4023-1.7188 7.9453-5.1133 9.8555-9.4375-2.2695 12.039-4.0469 24.121-6.4766 36.188v-0.003906c-0.21875 1.0625-0.50391 2.1094-0.85547 3.1367l-1.1914 2.9336h-0.003906c-4.5469 7.3438-11.98 12.426-20.469 14-5.8516-7.1094-13.898-12.078-22.879-14.125-1.3359-0.30078-2.6953 0.41016-3.2109 1.6836-0.51172 1.2695-0.027343 2.7266 1.1445 3.4375 11.043 6.2188 19.504 16.18 23.855 28.082 3.0859 12.867-0.71094 26.418-10.043 35.805-10.68 10.121-25.754 14.156-40.062 10.719-11.336-2.3398-29.793-7.3477-34.312-19.426-0.50391-1.3242-2.625-0.72266-2.1289 0.61719v-0.003906c7.332 14.637 20.961 25.113 36.988 28.438 16.031 3.3242 32.699-0.86719 45.246-11.379 5.543-4.7695 9.8281-10.832 12.473-17.645l2.2773 2.0781c4.5938 4.6016 8.875 9.5586 13.828 13.777v-0.003906c4.9141 4.5391 10.895 7.7617 17.391 9.3711l-3.6953 1.4414c-0.98828 0.31641-1.6523 1.2422-1.6367 2.2812 0.015625 1.0352 0.70703 1.9414 1.7031 2.2305 5.6602 2.0547 10.801-1.6406 15.992-3.832 6.5898-2.7852 13.918-1.207 20.363-3.9453 4.043-1.0156 7.4492-3.7383 9.3281-7.4609 1.7812-4.8047 2.7148-9.8828 2.7656-15.008 2.3828-13.93 2.0586-28.191-0.95312-42z"/>
  <path d="m508.56 447.93c-3.1133-17.516-5.9414-35.281-10.746-52.438h0.003906c-2.8203-13.281-7.2891-26.152-13.309-38.316-6.1016-8.6992-15.031-15.016-25.266-17.875 3.8828 0.82031 7.918 0.54297 11.656-0.79297 3.7383-1.3359 7.0312-3.6797 9.5156-6.7734 3.8438-6.3086 6.7734-13.129 8.7109-20.258 3.0898-8.9844 5.6094-18.152 7.5352-27.457 3.8125-15.633 1.1367-32.145-7.4141-45.773-10.109-16.129-24-29.344-35.121-44.672-0.55859-0.77734-1.8008-0.058594-1.2852 0.77734 15.098 24.609 39.055 46.953 37.559 77.926-1.5156 15.566-5.0586 30.871-10.531 45.523-2.3516 7.207-5.2266 14.77-13.727 15.77-5.9883 0.70312-11.73-1.3672-17.785-0.50391-2.2383 0.32031-3.1016 3.7031-0.50781 4.2656l3.1289 0.65625c8.4883 8.207 20.07 13.305 26.051 23.707l0.003906 0.003906c5.6289 11.516 9.7852 23.695 12.363 36.25 3.9141 14.289 6.7266 29.031 9.3594 43.609 0.91406 6.1328 2.1953 12.207 3.832 18.188 1.5273 4.9922 7.4375 15.254 5.4453 20.203-0.69141 1.707 1.8555 2.3789 2.7578 1.1211 7.2344-10.074-0.36719-22.652-2.2305-33.141z"/>
  <path d="m479.26 177.69c-2.8008-6.6172-15.367-17.359-11.562-24.863v-0.003907c4.2344-5.9531 7.0977-12.773 8.3828-19.969 0.44141-8.1016-1.832-16.121-6.4648-22.781-4.5391-4.8555-10.324-8.3711-16.723-10.156-6.4023-1.7852-13.172-1.7773-19.566 0.027344-16.828 2.9023-23.832 15.73-32.145 29.047l0.21484 0.16016c8.8086-11.223 21.273-18.996 35.227-21.965 5.8555-0.70703 11.793-0.25391 17.473 1.332 3.6289 1.4727 6.7812 3.918 9.1172 7.0625 2.332 3.1445 3.7539 6.8711 4.1133 10.77 1.2969 7.4219-0.80078 15.031-5.7109 20.738-2.6953 4.4492-2.9922 9.9492-0.79688 14.664 2.6523 5.1641 5.8672 10.023 9.5781 14.488 4.0547 7.4023 6.6758 15.504 7.7266 23.875 0.20312 0.63672 0.79688 1.0664 1.4609 1.0586 0.66797-0.011719 1.25-0.45703 1.4336-1.0977 1.8984-7.4531 1.2812-15.324-1.7578-22.387z"/>
  <path d="m453.75 150.83c-5.3008-10.375-7.3477-22.113-5.8672-33.668 0.11328-0.42578-0.14453-0.86328-0.56641-0.97266-0.42578-0.10938-0.86328 0.14453-0.97266 0.57031-4 8.2578-5.8555 17.391-5.4023 26.555 1.0703 4.2461 2.8359 8.2812 5.2305 11.949-3.4648 1.2656-7.5156 4.0039-9.7812 4.8711-10.703 4.1055-31.551 10.055-37.633-3.4727-0.34766-0.76953-1.6602-0.19531-1.3594 0.60156 1.6641 4.1914 4.582 7.7656 8.3555 10.234 3.7773 2.4688 8.2188 3.7109 12.727 3.5586 10.914 0.14844 21.617-2.9961 30.715-9.0312 0.63281 1.9883 0.78906 4.0938 0.45312 6.1523-0.14453 0.63672 0.19531 1.2852 0.80078 1.5273 0.60547 0.24609 1.3008 0.015625 1.6406-0.54297 2.2305-2.4609 3.5977-5.582 3.8984-8.8906 0.29687-3.3047-0.48828-6.6211-2.2383-9.4414z"/>
  <path d="m232.72 477.35-0.57031-1.4336c-0.35547-1.1016-1.5117-1.7344-2.6328-1.4414-3.457 1.4609-6.7812 3.2188-9.9336 5.2539-4.4688 2.1055-8.582 4.8828-12.207 8.2383-9.7305 9.7773-22.242 16.312-35.824 18.703-0.5625 0.011719-1.0078 0.47266-1 1.0352 0.007813 0.55859 0.47266 1.0078 1.0352 0.99609 10.945-0.042969 21.645-3.2617 30.797-9.2656 5.5664-3.1875 10.336-7.5547 15.77-10.961 4.582-2.8594 9.793-3.4961 13.652-7.457v0.003907c0.94922-0.96484 1.3008-2.3711 0.91406-3.6719z"/>
  <path d="m495.63 489.77c-14.824-8.4336-25.922-22.145-31.082-38.398-6.332-15.367-12.012-31.043-18.066-46.504v0.003907c-0.23047-0.67578-0.94922-1.0508-1.6328-0.85156-0.67969 0.19922-1.0859 0.90234-0.91406 1.5938 3.1367 18.668 7.9648 37.012 14.422 54.809 7.0273 15.566 17.703 31.738 36.512 32.328 1.5234 0.039062 2.2227-2.3398 0.76172-2.9805z"/>
  <path d="m546.46 497.33c-7.0195-9.8789-14.691-23.133-28.73-23.133-0.82422 0.039063-1.5039 0.66797-1.6016 1.4883-0.097656 0.82031 0.41406 1.5938 1.207 1.8242 5.082 1.0664 9.8516 3.2734 13.953 6.457 2.3164 1.8086 7.9062 7.2695 7.4961 10.898-5.2266 0.40625-10.473 0.42969-15.699 0.074219-6.2344-1.5352-12.727-1.6953-19.027-0.47656-0.39844 0.12891-0.70313 0.45312-0.80469 0.86328-0.10156 0.40625 0.015625 0.83984 0.3125 1.1406 5.1953 5.3984 11.926 9.0703 19.277 10.523 7.3516 1.4492 14.973 0.61328 21.832-2.4062 2.4648-1.5312 3.2578-4.75 1.7852-7.2539z"/>
  <path d="m439.61 151.12c-0.87109-1.6484-1.8828-3.2188-3.0234-4.6914-1.7148-1.8594-3.1289-3.9766-4.1914-6.2734-0.19141-0.65234-0.875-1.0312-1.5312-0.83984s-1.0312 0.875-0.83984 1.5312c0.48438 2.4141 1.3125 4.7422 2.4609 6.918 1.2305 2.0273 2.7773 3.8359 4.582 5.3672 0.59375 0.55078 1.5 0.58594 2.1367 0.082032 0.63281-0.5 0.80859-1.3906 0.40625-2.0938z"/>
  <path d="m423.92 125.49c-2.0117-1.6875-3.3555-4.0391-3.7852-6.6289-0.03125-0.54688-0.48828-0.96875-1.0312-0.96094-0.54688 0.007812-0.98828 0.44141-1.0078 0.98437-0.054687 1.6523 0.17188 3.2969 0.67188 4.8711 0.54688 1.7578 1.8086 3.2031 3.4727 3.9883 0.62109 0.32422 1.3867 0.15234 1.8047-0.41016 0.41797-0.55859 0.36328-1.3438-0.125-1.8438z"/>
  <path d="m414.96 149.59c-0.30859-1.8438-2.668-3.1602-3.9805-4.3555v0.003906c-1.8086-1.4922-2.9062-3.6758-3.0234-6.0156-0.023437-0.5-0.44141-0.89453-0.94141-0.88672-0.5 0.007812-0.90625 0.41016-0.91406 0.91406-0.19531 2.7539 0.30859 5.5156 1.457 8.0312 1.1211 2.1562 3.6484 4.918 6.2891 4.3398 0.85547-0.26562 1.3477-1.1641 1.1133-2.0312z"/>
  <path d="m364.22 277.58c-0.41016-1.3906-1.5195-2.4648-2.918-2.8359l-1.0703-0.13281h-0.003906c-0.73828 0.015625-1.4609 0.22266-2.0977 0.60547l-0.81641 0.65625c-0.76562 1.0078-0.84375 1.1211-0.25391 0.32031-1 0.97656-1.5469 2.332-1.5 3.7305 0.058594 1.5195 0.88281 2.9062 2.1914 3.6836 1.3594 0.73828 3.0078 0.71484 4.3477-0.066407 2.0352-1.2305 2.9219-3.7227 2.1211-5.9609z"/>
  <path d="m476.15 72.758c-11.598-1.6641-23.414-0.85156-34.672 2.3789-13.551 2.4258-27.246 3.9766-40.992 4.6406-1.0312 0.078125-1.5781 1.5469-0.53125 2.0625 1.3438 0.66016 2.7266 1.2305 4.1445 1.7109-3.6914 8.168-6.625 16.66-8.7617 25.367-3.2461 11.875-7.7461 23.371-13.426 34.289-0.71875 1.1992 1.0781 2.1289 1.8555 1.0469 6.0859-9.0352 10.887-18.871 14.254-29.23 3.6836-10.234 8.9883-19.625 12.801-29.824l0.015626-0.050781c8.1367 0.8125 16.348 0.29687 24.316-1.5273 13.727-2.5312 27.539-5.5781 41.023-9.0703 0.39844-0.12109 0.66797-0.49219 0.66016-0.90625-0.003907-0.41797-0.28516-0.77734-0.6875-0.88672z"/>
  <path d="m530.07 87.629c-7.8633-2.8555-15.555-6.1484-23.051-9.8594-7.2344-1.9805-14.719-2.9102-22.219-2.7617l-0.24609 0.44922h-0.003906c2.1992 1.8359 4.7891 3.1445 7.5742 3.8242 5.9258 1.2266 11.652 3.2617 17.023 6.0508 6.1992 4.0664 13.574 5.9531 20.965 5.3633 1.6602-0.35547 1.3281-2.6055-0.042969-3.0664z"/>
  <path d="m499.68 84.043c-4.7969-1.8359-14.027-1.9258-17.281-6.2617-0.25-0.39453-0.6875-0.62891-1.1562-0.62109-0.46875 0.007813-0.89844 0.25781-1.1367 0.66016-2.9922 4.5938 4.6016 7.6172 7.6836 8.8281 2.9688 1.1641 6.1172 1.7695 9.1562 2.7266l0.003907 0.003906c4.125 1.3008 7.5547 4.207 9.5156 8.0625 0.32031 0.5 0.90625 0.76562 1.4961 0.67969 0.59375-0.089844 1.0742-0.51562 1.2383-1.0859 2.2383-6.9141-3.8711-10.828-9.5195-12.992z"/>
 </g>
</svg>
