<?xml version="1.0" encoding="UTF-8"?>
<svg width="700pt" height="700pt" version="1.1" viewBox="0 0 700 700" xmlns="http://www.w3.org/2000/svg" xmlns:xlink="http://www.w3.org/1999/xlink">
 <g>
  <path d="m462.44 372.98c9.4922 0 19.496-1.5586 29.672-5.4258 48.582-18.461 79.922-83.262 81.234-86.012 1.6445-3.4492 1.8086-7.4219 0.44922-10.992-1.3555-3.5781-4.1172-6.4375-7.6367-7.9258-2.8047-1.1875-69.27-28.82-117.85-10.367h-0.003906c-40.23 15.285-54.34 55.641-58.688 73.293l-6.0859 2.3125-7.2461-105.11c4.1211-3.6445 6.7773-8.9141 6.7773-14.836v-10.309c5.4375-3.5508 9.0547-9.668 9.0547-16.637v-11.141c27.109-16.598 42.898-47.605 39.863-79.844-3.7148-39.48-35.012-71.227-74.418-75.484-23.902-2.6094-47.781 5.0703-65.535 21.004-17.75 15.93-27.934 38.734-27.934 62.562 0 29.363 15.535 56.625 40.246 71.762v11.141c0 6.9648 3.6133 13.082 9.0508 16.633l-0.003906 10.312c0 5.9336 2.6641 11.211 6.8008 14.855l-3.6914 53.574-6.1133-2.3242c-4.3516-17.652-18.461-58.008-58.688-73.293h-0.003906c-48.574-18.473-115.05 9.1836-117.85 10.367-3.5234 1.4883-6.2812 4.3477-7.6367 7.9258-1.3594 3.5703-1.1953 7.543 0.44922 10.992 1.3086 2.75 32.652 67.551 81.234 86.012 10.18 3.8672 20.176 5.4258 29.672 5.4258 28.051 0 51.695-13.559 62.875-21.258l14.051 5.3438-7.1445 103.7c-11.707 6.4922-22.258 15.098-30.961 25.535-10.191-3.3477-20.855-5.0352-31.785-5.0352-46.828 0-87.586 31.676-99.109 77.027-2.3945 9.4062-0.32422 19.227 5.6758 26.938 6.0742 7.8086 15.219 12.289 25.098 12.289h343.91c12.555 0 23.609-7.1094 28.859-18.562 5.1914-11.324 3.3867-24.199-4.707-33.594-20.387-23.656-51.941-35.438-83.059-30.691-13.016-31.934-40.223-55.305-72.816-63.973l-2.9023-42.125 14.027-5.332c11.176 7.6992 34.816 21.258 62.871 21.258zm-4.1875-94.551h-0.003906c26.336-10.008 62.426-1.4805 82.332 4.7852-11.895 19.77-33.598 48.73-58.41 58.164-26.348 10.012-52.797-3.6484-64.746-11.418 3.7812-13.77 14.484-41.516 40.828-51.531zm-240.42 11.43c-26.332-10.008-47.664-40.336-58.383-58.246 22.023-6.8789 57.48-14.141 82.301-4.7031h-0.003906c26.383 10.023 37.078 37.848 40.848 51.574-11.898 7.8008-38.191 21.461-64.762 11.375zm74.258-191.78c0-15.887 6.793-31.094 18.633-41.727 12.02-10.789 27.59-15.75 43.816-14.004 25.816 2.793 47.121 24.406 49.559 50.273 2.2188 23.594-10.621 46.184-31.949 56.219-4.9062 2.3086-8.0391 7.2422-8.0391 12.664v11.359h-31.777v-11.359c0-5.4258-3.1328-10.363-8.043-12.672-19.559-9.1992-32.199-29.121-32.199-50.754zm68.031 297.37c-8.1211 0.015625-16.152 0.95312-23.953 2.7344l11.723-170.15h0.6875zm77.016 83.148c3.3125 9.8828 13.332 15.562 23.305 13.211 23.043-5.3984 47.422 2.6289 62.668 20.316 0.92578 1.0781 1.082 2.3008 0.46484 3.6523-0.37891 0.83203-1.332 2.2266-3.4062 2.2266h-343.92c-1.6055 0-2.5664-0.92578-2.9961-1.4766-0.46875-0.60547-0.96094-1.5898-0.64062-2.8555 8.3711-32.926 37.965-55.922 71.973-55.922 9.418 0 18.543 1.7188 27.098 5.0977 8.418 3.3633 18.059 0.60156 23.453-6.6484 15.484-20.812 39.242-32.754 65.184-32.754 34.895 0 65.762 22.164 76.816 55.152z"/>
 </g>
</svg>
