<?xml version="1.0" encoding="UTF-8"?>
<svg width="700pt" height="700pt" version="1.1" viewBox="0 0 700 700" xmlns="http://www.w3.org/2000/svg" xmlns:xlink="http://www.w3.org/1999/xlink">
 <defs>
  <symbol id="t" overflow="visible">
   <path d="m18.766-1.125c-0.96875 0.5-1.9805 0.875-3.0312 1.125-1.043 0.25781-2.1367 0.39062-3.2812 0.39062-3.3984 0-6.0898-0.94531-8.0781-2.8438-1.9922-1.9062-2.9844-4.4844-2.9844-7.7344 0-3.2578 0.99219-5.8359 2.9844-7.7344 1.9883-1.9062 4.6797-2.8594 8.0781-2.8594 1.1445 0 2.2383 0.13281 3.2812 0.39062 1.0508 0.25 2.0625 0.625 3.0312 1.125v4.2188c-0.98047-0.65625-1.9453-1.1406-2.8906-1.4531-0.94922-0.3125-1.9492-0.46875-3-0.46875-1.875 0-3.3516 0.60547-4.4219 1.8125-1.0742 1.1992-1.6094 2.8555-1.6094 4.9688 0 2.1055 0.53516 3.7617 1.6094 4.9688 1.0703 1.1992 2.5469 1.7969 4.4219 1.7969 1.0508 0 2.0508-0.14844 3-0.45312 0.94531-0.3125 1.9102-0.80078 2.8906-1.4688z"/>
  </symbol>
  <symbol id="c" overflow="visible">
   <path d="m13.734-11.141c-0.4375-0.19531-0.87109-0.34375-1.2969-0.4375-0.41797-0.10156-0.83984-0.15625-1.2656-0.15625-1.2617 0-2.2305 0.40625-2.9062 1.2188-0.67969 0.80469-1.0156 1.9531-1.0156 3.4531v7.0625h-4.8906v-15.312h4.8906v2.5156c0.625-1 1.3438-1.7266 2.1562-2.1875 0.82031-0.46875 1.8008-0.70312 2.9375-0.70312 0.16406 0 0.34375 0.011719 0.53125 0.03125 0.19531 0.011719 0.47656 0.039062 0.84375 0.078125z"/>
  </symbol>
  <symbol id="a" overflow="visible">
   <path d="m17.641-7.7031v1.4062h-11.453c0.125 1.1484 0.53906 2.0078 1.25 2.5781 0.70703 0.57422 1.7031 0.85938 2.9844 0.85938 1.0312 0 2.082-0.14844 3.1562-0.45312 1.082-0.3125 2.1914-0.77344 3.3281-1.3906v3.7656c-1.1562 0.4375-2.3125 0.76562-3.4688 0.98438-1.1562 0.22656-2.3125 0.34375-3.4688 0.34375-2.7734 0-4.9297-0.70312-6.4688-2.1094-1.5312-1.4062-2.2969-3.3789-2.2969-5.9219 0-2.5 0.75391-4.4609 2.2656-5.8906 1.5078-1.4375 3.582-2.1562 6.2188-2.1562 2.4062 0 4.332 0.73047 5.7812 2.1875 1.4453 1.4492 2.1719 3.3828 2.1719 5.7969zm-5.0312-1.625c0-0.92578-0.27344-1.6719-0.8125-2.2344-0.54297-0.57031-1.25-0.85938-2.125-0.85938-0.94922 0-1.7188 0.26562-2.3125 0.79688s-0.96484 1.2969-1.1094 2.2969z"/>
  </symbol>
  <symbol id="l" overflow="visible">
   <path d="m9.2188-6.8906c-1.0234 0-1.793 0.17188-2.3125 0.51562-0.51172 0.34375-0.76562 0.85547-0.76562 1.5312 0 0.625 0.20703 1.1172 0.625 1.4688 0.41406 0.34375 0.98828 0.51562 1.7188 0.51562 0.92578 0 1.7031-0.32812 2.3281-0.98438 0.63281-0.66406 0.95312-1.4922 0.95312-2.4844v-0.5625zm7.4688-1.8438v8.7344h-4.9219v-2.2656c-0.65625 0.92969-1.3984 1.6055-2.2188 2.0312-0.82422 0.41406-1.8242 0.625-3 0.625-1.5859 0-2.8711-0.45703-3.8594-1.375-0.99219-0.92578-1.4844-2.1289-1.4844-3.6094 0-1.7891 0.61328-3.1016 1.8438-3.9375 1.2383-0.84375 3.1797-1.2656 5.8281-1.2656h2.8906v-0.39062c0-0.76953-0.30859-1.332-0.92188-1.6875-0.61719-0.36328-1.5703-0.54688-2.8594-0.54688-1.0547 0-2.0312 0.10547-2.9375 0.3125-0.89844 0.21094-1.7305 0.52344-2.5 0.9375v-3.7344c1.0391-0.25 2.0859-0.44141 3.1406-0.57812 1.0625-0.13281 2.125-0.20312 3.1875-0.20312 2.7578 0 4.75 0.54688 5.9688 1.6406 1.2266 1.0859 1.8438 2.8555 1.8438 5.3125z"/>
  </symbol>
  <symbol id="b" overflow="visible">
   <path d="m7.7031-19.656v4.3438h5.0469v3.5h-5.0469v6.5c0 0.71094 0.14062 1.1875 0.42188 1.4375s0.83594 0.375 1.6719 0.375h2.5156v3.5h-4.1875c-1.9375 0-3.3125-0.39844-4.125-1.2031-0.80469-0.8125-1.2031-2.1797-1.2031-4.1094v-6.5h-2.4219v-3.5h2.4219v-4.3438z"/>
  </symbol>
  <symbol id="k" overflow="visible">
   <path d="m12.766-13.078v-8.2031h4.9219v21.281h-4.9219v-2.2188c-0.66797 0.90625-1.4062 1.5703-2.2188 1.9844s-1.7578 0.625-2.8281 0.625c-1.8867 0-3.4336-0.75-4.6406-2.25-1.2109-1.5-1.8125-3.4258-1.8125-5.7812 0-2.3633 0.60156-4.2969 1.8125-5.7969 1.207-1.5 2.7539-2.25 4.6406-2.25 1.0625 0 2 0.21484 2.8125 0.64062 0.82031 0.42969 1.5664 1.0859 2.2344 1.9688zm-3.2188 9.9219c1.0391 0 1.8359-0.37891 2.3906-1.1406 0.55078-0.76953 0.82812-1.8828 0.82812-3.3438 0-1.457-0.27734-2.5664-0.82812-3.3281-0.55469-0.76953-1.3516-1.1562-2.3906-1.1562-1.043 0-1.8398 0.38672-2.3906 1.1562-0.55469 0.76172-0.82812 1.8711-0.82812 3.3281 0 1.4609 0.27344 2.5742 0.82812 3.3438 0.55078 0.76172 1.3477 1.1406 2.3906 1.1406z"/>
  </symbol>
  <symbol id="j" overflow="visible">
   <path d="m10.5-3.1562c1.0508 0 1.8516-0.37891 2.4062-1.1406 0.55078-0.76953 0.82812-1.8828 0.82812-3.3438 0-1.457-0.27734-2.5664-0.82812-3.3281-0.55469-0.76953-1.3555-1.1562-2.4062-1.1562-1.0547 0-1.8594 0.38672-2.4219 1.1562-0.55469 0.77344-0.82812 1.8828-0.82812 3.3281 0 1.4492 0.27344 2.5586 0.82812 3.3281 0.5625 0.77344 1.3672 1.1562 2.4219 1.1562zm-3.25-9.9219c0.67578-0.88281 1.4219-1.5391 2.2344-1.9688 0.82031-0.42578 1.7656-0.64062 2.8281-0.64062 1.8945 0 3.4453 0.75 4.6562 2.25 1.207 1.5 1.8125 3.4336 1.8125 5.7969 0 2.3555-0.60547 4.2812-1.8125 5.7812-1.2109 1.5-2.7617 2.25-4.6562 2.25-1.0625 0-2.0078-0.21094-2.8281-0.625-0.8125-0.42578-1.5586-1.0859-2.2344-1.9844v2.2188h-4.8906v-21.281h4.8906z"/>
  </symbol>
  <symbol id="i" overflow="visible">
   <path d="m0.34375-15.312h4.8906l4.125 10.391 3.5-10.391h4.8906l-6.4375 16.766c-0.64844 1.6953-1.4023 2.8828-2.2656 3.5625-0.86719 0.6875-2 1.0312-3.4062 1.0312h-2.8438v-3.2188h1.5312c0.83203 0 1.4375-0.13672 1.8125-0.40625 0.38281-0.26172 0.67969-0.73047 0.89062-1.4062l0.14062-0.42188z"/>
  </symbol>
  <symbol id="d" overflow="visible">
   <path d="m2.5781-20.406h8.7344c2.5938 0 4.582 0.57812 5.9688 1.7344 1.3945 1.1484 2.0938 2.7891 2.0938 4.9219 0 2.1367-0.69922 3.7812-2.0938 4.9375-1.3867 1.1562-3.375 1.7344-5.9688 1.7344h-3.4844v7.0781h-5.25zm5.25 3.8125v5.7031h2.9219c1.0195 0 1.8047-0.25 2.3594-0.75 0.5625-0.5 0.84375-1.2031 0.84375-2.1094 0-0.91406-0.28125-1.6172-0.84375-2.1094-0.55469-0.48828-1.3398-0.73438-2.3594-0.73438z"/>
  </symbol>
  <symbol id="h" overflow="visible">
   <path d="m2.3594-15.312h4.8906v15.312h-4.8906zm0-5.9688h4.8906v4h-4.8906z"/>
  </symbol>
  <symbol id="s" overflow="visible">
   <path d="m2.3594-21.281h4.8906v11.594l5.625-5.625h5.6875l-7.4688 7.0312 8.0625 8.2812h-5.9375l-5.9688-6.3906v6.3906h-4.8906z"/>
  </symbol>
  <symbol id="g" overflow="visible">
   <path d="m14.719-14.828v3.9844c-0.65625-0.45703-1.3242-0.79688-2-1.0156-0.66797-0.21875-1.3594-0.32812-2.0781-0.32812-1.3672 0-2.4336 0.40234-3.2031 1.2031-0.76172 0.79297-1.1406 1.9062-1.1406 3.3438 0 1.4297 0.37891 2.543 1.1406 3.3438 0.76953 0.79297 1.8359 1.1875 3.2031 1.1875 0.75781 0 1.4844-0.10938 2.1719-0.32812 0.6875-0.22656 1.3203-0.56641 1.9062-1.0156v4c-0.76172 0.28125-1.5391 0.48828-2.3281 0.625-0.78125 0.14453-1.5742 0.21875-2.375 0.21875-2.7617 0-4.9219-0.70703-6.4844-2.125-1.5547-1.4141-2.3281-3.3828-2.3281-5.9062 0-2.5312 0.77344-4.5039 2.3281-5.9219 1.5625-1.4141 3.7227-2.125 6.4844-2.125 0.80078 0 1.5938 0.074219 2.375 0.21875 0.78125 0.13672 1.5547 0.35156 2.3281 0.64062z"/>
  </symbol>
  <symbol id="f" overflow="visible">
   <path d="m2.1875-5.9688v-9.3438h4.9219v1.5312c0 0.83594-0.007813 1.875-0.015625 3.125-0.011719 1.25-0.015625 2.0859-0.015625 2.5 0 1.2422 0.03125 2.1328 0.09375 2.6719 0.070313 0.54297 0.17969 0.93359 0.32812 1.1719 0.20703 0.32422 0.47266 0.57422 0.79688 0.75 0.32031 0.16797 0.69141 0.25 1.1094 0.25 1.0195 0 1.8203-0.39062 2.4062-1.1719 0.58203-0.78125 0.875-1.8672 0.875-3.2656v-7.5625h4.8906v15.312h-4.8906v-2.2188c-0.74219 0.89844-1.5234 1.5586-2.3438 1.9844-0.82422 0.41406-1.7344 0.625-2.7344 0.625-1.7617 0-3.1055-0.53906-4.0312-1.625-0.92969-1.082-1.3906-2.6602-1.3906-4.7344z"/>
  </symbol>
  <symbol id="r" overflow="visible">
   <path d="m12.422-21.281v3.2188h-2.7031c-0.6875 0-1.1719 0.125-1.4531 0.375-0.27344 0.25-0.40625 0.6875-0.40625 1.3125v1.0625h4.1875v3.5h-4.1875v11.812h-4.8906v-11.812h-2.4375v-3.5h2.4375v-1.0625c0-1.6641 0.46094-2.8984 1.3906-3.7031 0.92578-0.80078 2.3672-1.2031 4.3281-1.2031z"/>
  </symbol>
  <symbol id="e" overflow="visible">
   <path d="m9.6406-12.188c-1.0859 0-1.9141 0.39062-2.4844 1.1719-0.57422 0.78125-0.85938 1.9062-0.85938 3.375s0.28516 2.5938 0.85938 3.375c0.57031 0.77344 1.3984 1.1562 2.4844 1.1562 1.0625 0 1.875-0.38281 2.4375-1.1562 0.57031-0.78125 0.85938-1.9062 0.85938-3.375s-0.28906-2.5938-0.85938-3.375c-0.5625-0.78125-1.375-1.1719-2.4375-1.1719zm0-3.5c2.6328 0 4.6914 0.71484 6.1719 2.1406 1.4766 1.418 2.2188 3.3867 2.2188 5.9062 0 2.5117-0.74219 4.4805-2.2188 5.9062-1.4805 1.418-3.5391 2.125-6.1719 2.125-2.6484 0-4.7148-0.70703-6.2031-2.125-1.4922-1.4258-2.2344-3.3945-2.2344-5.9062 0-2.5195 0.74219-4.4883 2.2344-5.9062 1.4883-1.4258 3.5547-2.1406 6.2031-2.1406z"/>
  </symbol>
  <symbol id="q" overflow="visible">
   <path d="m16.547-12.766c0.61328-0.94531 1.3477-1.6719 2.2031-2.1719 0.85156-0.5 1.7891-0.75 2.8125-0.75 1.7578 0 3.0977 0.54688 4.0156 1.6406 0.92578 1.0859 1.3906 2.6562 1.3906 4.7188v9.3281h-4.9219v-7.9844-0.35938c0.007813-0.13281 0.015625-0.32031 0.015625-0.5625 0-1.082-0.16406-1.8633-0.48438-2.3438-0.3125-0.48828-0.82422-0.73438-1.5312-0.73438-0.92969 0-1.6484 0.38672-2.1562 1.1562-0.51172 0.76172-0.77344 1.8672-0.78125 3.3125v7.5156h-4.9219v-7.9844c0-1.6953-0.14844-2.7852-0.4375-3.2656-0.29297-0.48828-0.8125-0.73438-1.5625-0.73438-0.9375 0-1.6641 0.38672-2.1719 1.1562-0.51172 0.76172-0.76562 1.8594-0.76562 3.2969v7.5312h-4.9219v-15.312h4.9219v2.2344c0.60156-0.86328 1.2891-1.5156 2.0625-1.9531 0.78125-0.4375 1.6406-0.65625 2.5781-0.65625 1.0625 0 2 0.25781 2.8125 0.76562 0.8125 0.51172 1.4258 1.2305 1.8438 2.1562z"/>
  </symbol>
  <symbol id="p" overflow="visible">
   <path d="m17.75-9.3281v9.3281h-4.9219v-7.1094c0-1.3438-0.03125-2.2656-0.09375-2.7656s-0.16797-0.86719-0.3125-1.1094c-0.1875-0.3125-0.44922-0.55469-0.78125-0.73438-0.32422-0.17578-0.69531-0.26562-1.1094-0.26562-1.0234 0-1.8242 0.39844-2.4062 1.1875-0.58594 0.78125-0.875 1.8711-0.875 3.2656v7.5312h-4.8906v-21.281h4.8906v8.2031c0.73828-0.88281 1.5195-1.5391 2.3438-1.9688 0.83203-0.42578 1.75-0.64062 2.75-0.64062 1.7695 0 3.1133 0.54688 4.0312 1.6406 0.91406 1.0859 1.375 2.6562 1.375 4.7188z"/>
  </symbol>
  <symbol id="o" overflow="visible">
   <path d="m2.5781-20.406h5.875l7.4219 14v-14h4.9844v20.406h-5.875l-7.4219-14v14h-4.9844z"/>
  </symbol>
  <symbol id="n" overflow="visible">
   <path d="m17.75-9.3281v9.3281h-4.9219v-7.1406c0-1.3203-0.03125-2.2344-0.09375-2.7344s-0.16797-0.86719-0.3125-1.1094c-0.1875-0.3125-0.44922-0.55469-0.78125-0.73438-0.32422-0.17578-0.69531-0.26562-1.1094-0.26562-1.0234 0-1.8242 0.39844-2.4062 1.1875-0.58594 0.78125-0.875 1.8711-0.875 3.2656v7.5312h-4.8906v-15.312h4.8906v2.2344c0.73828-0.88281 1.5195-1.5391 2.3438-1.9688 0.83203-0.42578 1.75-0.64062 2.75-0.64062 1.7695 0 3.1133 0.54688 4.0312 1.6406 0.91406 1.0859 1.375 2.6562 1.375 4.7188z"/>
  </symbol>
  <symbol id="m" overflow="visible">
   <path d="m2.3594-15.312h4.8906v15.031c0 2.0508-0.49609 3.6172-1.4844 4.7031-0.98047 1.082-2.4062 1.625-4.2812 1.625h-2.4219v-3.2188h0.85938c0.92578 0 1.5625-0.21094 1.9062-0.625 0.35156-0.41797 0.53125-1.2461 0.53125-2.4844zm0-5.9688h4.8906v4h-4.8906z"/>
  </symbol>
 </defs>
 <g>
  <path d="m493.99 128.1c-16.648-22.961-39.523-38.672-64.461-44.223-23.34-26.359-57.418-29.742-84.516-29.742h-0.55859c-35.391 0-67.957 16.379-89.512 44.793-36.605 9.7891-73.781 42.066-74.34 84.895 0.18359 22.203 8.7539 56.09 32.184 78.578 2.0664 10.633 6.0195 20.609 11.855 29.742 2.6367 4.2344 8.6562 5.6445 12.898 2.9102 0.17188-0.10547 0.30859-0.25391 0.47656-0.37109 4.0078-2.8516 5.1641-8.3711 2.5352-12.621-4.9883-7.9023-8.2773-16.656-9.7891-25.883-0.375-2.2578-1.5078-4.2344-3.1016-5.6445-19.578-16.57-28.426-49.598-28.234-66.723-0.28516-14.594 6.6797-29.742 19.578-42.828 12.039-12.234 27.949-21.172 43.574-24.555 2.2617-0.47656 4.2344-1.793 5.6445-3.7695 17.691-24.84 46.211-39.711 76.328-39.711 36.512 0.089843 58.25 7.6172 72.648 25.414 1.3203 1.6914 3.3945 2.9102 5.6523 3.293 20.512 3.3945 40.09 16.375 55.055 36.422 14.492 19.578 22.773 43.855 22.68 66.629 0.18359 51.945-39.906 100.61-85.922 104.08-2.9219 0.28516-5.5508 1.8867-7.1562 4.5234-5.8086 9.4531-14.211 15.707-26.344 19.309 1.0117-4.8945 1.7812-9.7617 1.7812-14.98 0-13.688-1.875-24.664-3.9688-34.344 6.457 4.4727 14.129 7.6992 22.887 7.6953 3.8906 0 7.9961-0.63281 12.297-2.0703 4.9297-1.6367 7.5938-6.9609 5.9453-11.898-1.6445-4.9219-6.9336-7.5977-11.906-5.9453-10.496 3.4727-19.691-2.9805-26.113-10 9.0312-2.1562 19.027-7.5273 27.906-18.355 3.8594 1.5781 10.691 3.8516 17.961 3.8516 6.2617 0 12.84-1.6914 18.117-6.9648 3.6797-3.6719 3.6797-9.6328 0-13.305-3.6719-3.6797-9.6328-3.6797-13.305 0-2.2344 2.2461-7.8633 1.4688-12.5 0.074218 9.7617-20.137 9.7148-33.988 5.1133-44.781 7.1562-3.293 13.926-7.3789 18.34-12.266 6.6641 4.625 12.879 14.902 15.332 20.395 1.5742 3.5 5.0117 5.5781 8.6133 5.5781 1.2773 0 2.5742-0.25781 3.8125-0.8125 4.7383-2.1094 6.8828-7.6562 4.7773-12.402-1.2109-2.7422-11.059-23.941-27.422-31.367v-11.879c0-5.1953-4.207-9.4062-9.4062-9.4062-5.2031 0-9.4141 4.2109-9.4141 9.4062v17.695c-1.8984 2.3203-8.4336 6.1211-15.664 9.2695-2.6641-2.793-5.5156-5.4648-8.3438-8.1094-2.2695-2.1211-4.6328-4.3281-6.9844-6.6875-17.504-17.504-35.695-53.664-35.879-54.02-2.3359-4.6484-7.9727-6.5234-12.629-4.2109-4.6523 2.3242-6.5352 7.9805-4.207 12.629 0.11719 0.23438 0.63672 1.2695 1.4961 2.9062-9.6367-2.4766-17-6.0742-17.109-6.1367-4.6758-2.2969-10.305-0.41406-12.617 4.2383-2.3203 4.6484-0.42969 10.289 4.207 12.609 0.79688 0.39062 18.246 9.0039 37.375 10.242 7.2031 11.809 16.535 25.531 26.059 35.043 2.5078 2.5078 5.0195 4.8477 7.4375 7.125 15.227 14.246 22.875 21.398 9.6211 47.891-9.5742 19.152-21.23 23.52-28.594 24.098 0.80469-5.6719 2.2695-11.523 3.7852-17.605 2.4531-9.8047 4.9883-19.945 4.9883-30.516 0-29.586-55.344-50.328-72.309-55.977-30.891-10.305-61.145-0.42969-62.422 0-4.9297 1.6367-7.5938 6.9648-5.9453 11.898 1.6445 4.9219 6.9375 7.6094 11.898 5.9453 0.10547-0.039063 4.9375-1.6133 12.41-2.6992 6.0352 7.4492 6.3789 19.965 5.3477 29.301-1.5664-1.4336-3.0898-2.9531-4.6719-4.5312-13.805-13.805-36.551-3.0391-39.098-1.7656-4.6523 2.3242-6.5352 7.9727-4.2109 12.629 2.3242 4.6484 7.9805 6.5234 12.629 4.2109 4.5703-2.2891 14.293-4.8281 17.371-1.7656 10.109 10.121 21.578 21.578 53.711 21.578 17.188 0 18.75 14.461 18.82 18.82 0 6.4688 3.4961 16.715 14.465 22.926-6.4727 2.9219-14.578 5.3086-23.871 5.3086-22.73 0-39.078-23.824-39.227-24.039-1.7461-2.6211-4.6875-4.1953-7.8281-4.1953l-8.9883 0.042969c-2.3516-0.72656-7.7227-7.5-10.84-13.676-2.3398-4.6406-7.9961-6.5156-12.645-4.1797-4.6367 2.3242-6.5234 7.9688-4.1992 12.609 2.8242 5.6328 13.113 24.023 27.238 24.023h4.7266c3.0977 3.8359 8.3906 9.6953 15.535 15.086l-7.2812 5.7695c-4.0703 3.2305-4.7617 9.1562-1.5352 13.227 1.8633 2.3398 4.6133 3.5625 7.3867 3.5625 2.043 0 4.1094-0.66016 5.8359-2.0273l13.461-10.668c5.5977 2.0156 11.727 3.2812 18.344 3.2812 4.8164 0 9.3789-0.48047 13.668-1.293-4.168 10.965-4.2617 19.434-4.2617 20.113 0 5.2031 4.2109 9.4062 9.4141 9.4062 5.2031 0 9.4062-4.207 9.4062-9.4062 0-0.17969 0.22266-14.324 11.598-28.055 0.62891 3.0703 1.3281 6.1445 2.0508 9.2734 2.5469 11.027 5.1758 22.422 5.1758 37.605 0 5.4219-1.2812 10.992-2.7773 17.434-0.074219 0.30859-0.14453 0.63281-0.21875 0.94531-3.5898 0.26172-7.375 0.41406-11.406 0.4375h-9.4141c-20.984-0.09375-36.332-1.3203-44.984-9.6953-3.3672-3.1992-8.8477-3.1875-12.348-0.33203-0.3125 0.25781-0.63672 0.5-0.91406 0.80078-3.5859 3.7695-3.2969 9.6953 0.36328 13.184l0.10156 0.089843c15.898 14.402 36.887 14.59 57.223 14.777h9.8789 0.93359c2.418 0 4.7656-0.054687 7.0742-0.14453-0.47656 4.1211-0.78516 8.5625-0.78516 13.41 0 13.215 2.7539 26.461 5.4336 39.25 2.2617 10.863 4.4023 21.125 4.4023 29.625 0 34.086-25.727 49.617-49.621 49.617-23.871 0-49.621-15.211-49.621-39.789 0-26.762 13.016-39.777 39.777-39.777 12.273 0 20.109 19.66 20.109 29.941 0 8.3438-1.9219 10.266-10.266 10.266-5.6406 0-9-0.29688-9.6719-0.55859-0.011718-0.015625-0.59375-1.0859-0.59375-4.7891 0-5.2031-4.2109-9.4062-9.4141-9.4062s-9.4141 4.207-9.4141 9.4062c0 24.168 18.211 24.168 29.094 24.168 18.754 0 29.086-10.332 29.086-29.086 0-16.469-11.754-48.766-38.93-48.766-37.238 0-58.598 21.359-58.598 58.598 0 36.203 35.531 58.609 68.441 58.609 34.016 0 68.441-23.508 68.441-68.438 0-10.449-2.3359-21.629-4.8008-33.465-2.4805-11.867-5.0352-24.137-5.0352-35.41 0-5.7852 0.48828-10.836 1.2148-15.5 19.785-3.7305 34.086-12.203 43.98-25.996 26.906-3.8594 51.855-18.918 70.391-42.543 18.07-22.961 28.051-51.387 28.141-79.801-0.082031-26.914-9.1133-54.105-25.398-76.605zm-186.34 67.199c-7.5273 0-13.402-0.68359-18.188-1.8828 1.4883-7.8281 3.6406-24.871-1.9375-39.66 5.5273 0.45313 11.34 1.4727 17.152 3.4062 36.715 12.242 59.445 29.328 59.445 38.137 0 8.2539-2.1523 16.844-4.418 25.957-1.6445 6.5781-3.3086 13.312-4.2383 20.223-9.1445-2.1211-10.078-7.4609-10.16-8.5273-0.011719-15.137-10.043-37.652-37.656-37.652zm-57.418 120.09c-0.64844-2.3516-0.27344-4.8906 0.94531-7.0625 0.11328-0.19531 0.26953-0.35156 0.39844-0.53906 2.7148-3.8906 8.3594-5.2734 12.492-2.8516h0.089844c2.1602 1.3203 3.668 3.2969 4.3281 5.6523 0.51562 2.25 0.28516 4.5625-0.77734 6.6016-0.089844 0.17969-0.15234 0.375-0.25781 0.54688-1.6914 2.9102-4.793 4.7031-8.0859 4.7031-1.7031 0-3.2969-0.46875-4.7031-1.2227l-0.10156-0.09375c-2.1523-1.2148-3.6641-3.293-4.3281-5.7344z"/>
  <use x="70" y="644" xlink:href="#t"/>
  <use x="90.550781" y="644" xlink:href="#c"/>
  <use x="104.359375" y="644" xlink:href="#a"/>
  <use x="123.347656" y="644" xlink:href="#l"/>
  <use x="142.242188" y="644" xlink:href="#b"/>
  <use x="155.628906" y="644" xlink:href="#a"/>
  <use x="174.617188" y="644" xlink:href="#k"/>
  <use x="204.410156" y="644" xlink:href="#j"/>
  <use x="224.453125" y="644" xlink:href="#i"/>
  <use x="252.453125" y="644" xlink:href="#d"/>
  <use x="272.972656" y="644" xlink:href="#h"/>
  <use x="282.570312" y="644" xlink:href="#s"/>
  <use x="301.191406" y="644" xlink:href="#a"/>
  <use x="329.929688" y="644" xlink:href="#d"/>
  <use x="350.453125" y="644" xlink:href="#h"/>
  <use x="360.046875" y="644" xlink:href="#g"/>
  <use x="376.648438" y="644" xlink:href="#b"/>
  <use x="390.03125" y="644" xlink:href="#f"/>
  <use x="409.964844" y="644" xlink:href="#c"/>
  <use x="423.773438" y="644" xlink:href="#a"/>
  <use x="70" y="672" xlink:href="#r"/>
  <use x="82.183594" y="672" xlink:href="#c"/>
  <use x="95.992188" y="672" xlink:href="#e"/>
  <use x="115.226562" y="672" xlink:href="#q"/>
  <use x="154.152344" y="672" xlink:href="#b"/>
  <use x="167.535156" y="672" xlink:href="#p"/>
  <use x="187.46875" y="672" xlink:href="#a"/>
  <use x="216.207031" y="672" xlink:href="#o"/>
  <use x="239.640625" y="672" xlink:href="#e"/>
  <use x="258.878906" y="672" xlink:href="#f"/>
  <use x="278.8125" y="672" xlink:href="#n"/>
  <use x="308.492188" y="672" xlink:href="#d"/>
  <use x="329.015625" y="672" xlink:href="#c"/>
  <use x="342.820312" y="672" xlink:href="#e"/>
  <use x="362.058594" y="672" xlink:href="#m"/>
  <use x="371.65625" y="672" xlink:href="#a"/>
  <use x="390.648438" y="672" xlink:href="#g"/>
  <use x="407.242188" y="672" xlink:href="#b"/>
 </g>
</svg>
